# Blender v2.90.1 OBJ File: ''
# www.blender.org
mtllib Button.mtl
o gc0kgmocfy49
v -0.056215 0.063559 0.067867
v 0.056805 0.155344 0.067868
v -0.056215 0.155344 0.067868
v 0.000404 0.034793 0.090297
v 0.000404 -0.000516 0.090297
v 0.024959 0.025112 0.090297
v 0.034235 -0.000516 0.090297
v 0.029263 0.028060 0.079418
v 0.000404 0.038855 0.079418
v -0.033427 -0.000516 0.090297
v -0.039357 -0.000516 0.079418
v -0.024150 -0.026143 0.090297
v -0.028455 -0.029091 0.079418
v 0.000404 -0.039887 0.079418
v 0.000404 -0.035825 0.090297
v 0.056805 0.063559 0.067867
v -0.056215 -0.048999 0.079418
v -0.073642 -0.089329 0.054198
v -0.056215 -0.064109 0.079418
v 0.056805 -0.064109 0.079418
v 0.074233 -0.089329 0.054198
v 0.074233 0.180564 0.054198
v 0.056805 0.155344 0.079418
v 0.029263 -0.029091 0.079418
v 0.040166 -0.000516 0.079418
v 0.024959 -0.026143 0.090297
v 0.056805 -0.048999 0.079418
v -0.056215 0.063559 0.079418
v -0.056215 0.155344 0.079418
v -0.056215 0.047078 0.079418
v -0.073642 -0.089329 0.000031
v -0.073642 0.180564 0.000032
v -0.073642 0.180564 0.054198
v 0.074233 -0.089329 0.000031
v 0.056805 0.047078 0.079418
v 0.056805 0.063559 0.079418
v -0.028455 0.028060 0.079418
v 0.074233 0.180564 0.000032
v -0.024150 0.025112 0.090297
vt 0.358274 1.402860
vt 0.858511 1.630285
vt 0.358274 1.630285
vt 0.813335 1.912295
vt 0.813335 1.843331
vt 0.861509 1.893386
vt 0.879709 1.843331
vt 0.223110 1.862966
vt 0.251951 1.862966
vt 0.224070 1.882852
vt 0.251951 1.882852
vt 0.079986 1.882852
vt 0.079986 1.862966
vt 0.109427 1.882852
vt 0.108467 1.862966
vt 0.137308 1.862966
vt 0.137308 1.882852
vt 0.858511 1.402860
vt 0.358274 1.123967
vt 0.281140 1.024037
vt 0.358274 1.086528
vt 0.858511 1.086528
vt 0.935644 1.024037
vt 0.935644 1.692775
vt 0.858511 1.630285
vt 0.166149 1.862966
vt 0.194629 1.862966
vt 0.165188 1.882852
vt 0.194629 1.882852
vt 0.858511 1.123967
vt 0.358274 1.402860
vt 0.358274 1.630285
vt 0.358274 1.362026
vt 0.023180 1.275871
vt 0.278531 1.275871
vt 0.023180 1.691381
vt 0.278531 1.691381
vt 0.277554 1.948723
vt 0.277554 1.692574
vt 0.686971 1.948723
vt 0.686971 1.692574
vt 0.858511 1.362026
vt 0.858511 1.402860
vt 0.982077 1.500403
vt 0.982077 1.230126
vt 0.947956 1.500403
vt 0.947956 1.230126
vt 0.812335 1.760250
vt 0.751486 1.782909
vt 0.697383 1.741214
vt 0.728498 1.842888
vt 0.751486 1.902867
vt 0.697383 1.942875
vt 0.947956 1.707840
vt 0.982077 1.707840
vt 0.947956 1.022689
vt 0.982077 1.022689
vt 0.982077 1.978118
vt 0.947956 1.978118
vt 0.028768 1.275871
vt 0.278259 1.275871
vt 0.028768 1.691381
vt 0.278259 1.691381
vt 0.281140 1.692775
vt 0.687948 1.691381
vt 0.687948 1.946770
vt 0.278531 1.946770
vt 0.812335 1.925526
vt 0.873184 1.902867
vt 0.935685 1.942875
vt 0.896172 1.842888
vt 0.873184 1.782909
vt 0.935685 1.741214
vt 0.813335 1.774367
vt 0.765160 1.793277
vt 0.746961 1.843331
vt 0.051505 1.862966
vt 0.050545 1.882852
vt 0.022664 1.882852
vt 0.022664 1.862966
vt 0.765160 1.893386
vt 0.861509 1.793277
vn 0.0000 -0.0000 1.0000
vn 0.7189 0.5354 0.4432
vn 0.3364 0.8755 0.3468
vn 0.5458 0.7369 0.3988
vn 0.3465 0.8788 0.3281
vn -0.8780 0.0000 0.4786
vn -0.8865 -0.0000 0.4627
vn -0.7213 -0.5311 0.4446
vn -0.5417 -0.7392 0.4002
vn 0.0000 -0.9368 0.3498
vn -0.0000 -0.9285 0.3713
vn -0.6101 -0.0000 0.7923
vn -0.7807 -0.3083 0.5435
vn -0.2384 -0.2049 0.9493
vn 0.2418 -0.4157 0.8768
vn 0.7533 -0.3988 0.5229
vn 0.7981 0.4827 0.3606
vn 0.4913 0.4223 0.7618
vn 0.5417 -0.7392 0.4002
vn 0.8786 -0.1077 0.4653
vn 0.7213 -0.5311 0.4446
vn 0.8788 0.1127 0.4638
vn 0.4645 -0.0000 0.8856
vn -0.6401 0.2751 0.7174
vn -0.4645 -0.0000 0.8856
vn -1.0000 0.0000 0.0000
vn -0.4191 0.7851 0.4559
vn 0.0000 -1.0000 -0.0000
vn 0.6101 -0.0000 0.7923
vn 0.7071 0.7071 0.0000
vn -0.4472 0.8944 0.0000
vn -0.8944 0.4472 0.0000
vn 0.7071 -0.7071 0.0000
vn 1.0000 0.0000 0.0000
vn 0.0000 1.0000 0.0000
vn -0.5417 0.7392 0.4002
vn -0.7213 0.5311 0.4446
vn -0.3359 0.8746 0.3497
vn -0.3307 0.8841 0.3301
usemtl KeyPad
s 1
f 1/1/1 2/2/1 3/3/1
f 4/4/1 5/5/1 6/6/1
f 5/5/1 7/7/1 6/6/1
f 8/8/2 9/9/3 6/10/4
f 9/9/3 4/11/5 6/10/4
f 10/12/6 11/13/7 12/14/8
f 11/13/7 13/15/9 12/14/8
f 14/16/10 15/17/11 13/15/9
f 15/17/11 12/14/8 13/15/9
f 1/1/1 16/18/1 2/2/1
f 17/19/12 18/20/13 19/21/14
f 20/22/15 19/21/14 18/20/13
f 21/23/16 22/24/17 23/25/18
f 24/26/19 25/27/20 26/28/21
f 25/27/20 7/29/22 26/28/21
f 21/23/16 27/30/23 20/22/15
f 18/20/13 28/31/12 29/32/24
f 30/33/25 28/31/12 18/20/13
f 20/22/15 27/30/23 19/21/14
f 27/30/23 17/19/12 19/21/14
f 20/22/15 18/20/13 21/23/16
f 31/34/26 18/35/13 32/36/26
f 18/35/13 33/37/27 32/36/26
f 18/38/13 31/39/28 21/40/16
f 31/39/28 34/41/28 21/40/16
f 35/42/29 36/43/23 30/33/25
f 36/43/23 28/31/12 30/33/25
f 28/44/30 36/45/31 1/46/30
f 36/45/31 16/47/32 1/46/30
f 14/48/1 13/49/1 17/50/1
f 21/23/16 36/43/23 35/42/29
f 11/51/1 37/52/1 30/53/1
f 18/20/13 17/19/12 30/33/25
f 35/42/29 27/30/23 21/23/16
f 3/54/33 29/55/33 1/46/30
f 29/55/33 28/44/30 1/46/30
f 2/56/26 16/47/32 23/57/26
f 16/47/32 36/45/31 23/57/26
f 23/58/28 29/55/33 2/59/28
f 29/55/33 3/54/33 2/59/28
f 21/60/16 34/61/34 22/62/17
f 34/61/34 38/63/34 22/62/17
f 22/24/17 33/64/27 23/25/18
f 33/64/27 29/32/24 23/25/18
f 22/65/17 38/66/35 33/37/27
f 38/66/35 32/67/35 33/37/27
f 18/20/13 29/32/24 33/64/27
f 21/23/16 23/25/18 36/43/23
f 9/68/1 8/69/1 35/70/1
f 25/71/1 24/72/1 27/73/1
f 15/74/1 5/5/1 12/75/1
f 5/5/1 10/76/1 12/75/1
f 6/10/4 7/29/22 8/8/2
f 7/29/22 25/27/20 8/8/2
f 26/28/21 15/17/11 24/26/19
f 15/17/11 14/16/10 24/26/19
f 37/77/36 11/13/7 39/78/37
f 11/13/7 10/12/6 39/78/37
f 39/78/37 4/79/38 37/77/36
f 4/79/38 9/80/39 37/77/36
f 10/76/1 5/5/1 39/81/1
f 5/5/1 4/4/1 39/81/1
f 7/7/1 5/5/1 26/82/1
f 5/5/1 15/74/1 26/82/1
f 8/69/1 25/71/1 35/70/1
f 25/71/1 27/73/1 35/70/1
f 24/72/1 14/48/1 27/73/1
f 14/48/1 17/50/1 27/73/1
f 13/49/1 11/51/1 17/50/1
f 11/51/1 30/53/1 17/50/1
f 37/52/1 9/68/1 30/53/1
f 9/68/1 35/70/1 30/53/1
