# Blender v2.90.1 OBJ File: 'ContainmentGateDoorRight.blend'
# www.blender.org
mtllib ContainmentGateDoorRight.mtl
o 37uuzgmwo2wm
v -1.304787 0.195573 0.131999
v -1.595109 0.403501 0.119006
v -1.783413 0.193406 0.111528
v -1.593584 1.959748 0.114789
v -1.303980 2.167176 0.126608
v -1.796790 2.198258 0.106192
v -1.304714 0.375961 0.131506
v -0.580003 1.025432 0.160724
v -0.326912 0.982081 0.171671
v -1.304053 1.987358 0.127100
v -0.579629 1.336089 0.159885
v -0.326524 1.378978 0.170596
v -1.305632 2.167282 0.165208
v -0.164294 2.166024 0.214042
v -0.164382 2.327004 0.213797
v -1.784855 0.193526 0.150137
v -0.169260 0.019399 0.257081
v -0.166580 0.192020 0.219376
v -1.785134 0.035555 0.150137
v -0.575904 1.025101 0.064914
v -1.589485 1.959484 0.018979
v -1.591009 0.403237 0.023196
v -0.575530 1.335826 0.064076
v -1.299954 1.987095 0.031290
v -0.321654 2.166067 0.072652
v -1.299881 2.166912 0.030798
v -0.322425 1.378715 0.074786
v -0.323585 0.194465 0.077995
v -1.300615 0.375697 0.035696
v -1.300688 0.195309 0.036189
v -0.322813 0.981818 0.075862
v -0.325753 2.166331 0.168462
v -0.327684 0.194729 0.173805
v -0.162521 0.033328 0.105193
v -0.164691 0.191692 0.180787
v -0.160501 2.326427 0.099649
v -0.162757 2.165646 0.175437
v -0.005903 2.325921 0.105606
v -0.008148 0.033977 0.111817
v -1.799142 2.198365 0.144762
v 0.068432 0.033712 0.041605
v 0.070677 2.325656 0.035393
v -1.582332 0.402679 -0.179626
v -1.292010 0.194751 -0.166633
v -1.770636 0.192585 -0.187104
v -1.291203 2.166354 -0.172024
v -1.580808 1.958927 -0.183844
v -1.784013 2.197436 -0.192440
v -1.291277 1.986536 -0.171533
v -0.566852 1.335268 -0.138747
v -0.313747 1.378156 -0.128037
v -1.291938 0.375139 -0.167127
v -0.567226 1.024610 -0.137908
v -0.314136 0.981260 -0.126961
v -1.289552 2.166247 -0.210625
v -0.148285 2.325968 -0.162439
v -0.148215 2.164990 -0.161791
v -1.584907 1.959190 -0.088034
v -0.571325 1.024807 -0.042099
v -1.586431 0.402943 -0.083817
v -0.570952 1.335531 -0.042937
v -0.317075 2.165772 -0.034361
v -1.295376 1.986800 -0.075723
v -1.295303 2.166617 -0.076215
v -0.317846 1.378420 -0.032227
v -1.296037 0.375402 -0.071317
v -0.319007 0.194171 -0.029018
v -1.296110 0.195015 -0.070823
v -0.318235 0.981523 -0.031151
v -0.312976 2.165509 -0.130170
v -0.314907 0.193907 -0.124827
v -0.151914 0.190870 -0.117845
v -0.156246 0.032924 -0.041474
v -0.150029 0.032640 -0.155578
v -0.154168 2.326019 -0.048375
v -0.149981 2.164824 -0.123195
v 0.000373 2.325518 -0.041103
v -0.001872 0.033573 -0.034892
v -1.783062 2.197331 -0.231071
v -0.150501 0.190986 -0.156456
v -1.963773 0.008730 -0.205070
v -1.969069 2.308351 -0.211190
v -0.079080 2.307500 -0.202830
v -0.100956 0.014448 -0.173949
v -1.964422 2.329037 0.251197
v -1.964241 0.033305 0.264436
v -0.079791 0.009342 0.267568
v -0.079549 2.332074 0.266677
v -0.097691 0.014110 -0.173901
v -0.079039 0.008278 0.274248
v -1.963953 2.304463 -0.218309
v -0.078931 0.008335 0.269444
vt 0.336680 0.232973
vt 0.400246 0.278769
vt 0.440690 0.232799
vt 0.400084 0.617607
vt 0.336765 0.663212
vt 0.440462 0.663223
vt 0.336958 0.272797
vt 0.179096 0.414266
vt 0.123937 0.404848
vt 0.336991 0.623643
vt 0.179049 0.481904
vt 0.123895 0.491264
vt 0.336432 0.672485
vt 0.089809 0.672386
vt 0.090451 0.709009
vt 0.439591 0.223745
vt 0.090316 0.187167
vt 0.089911 0.223198
vt 0.439173 0.187799
vt 0.197607 0.420470
vt 0.387094 0.594671
vt 0.387094 0.304261
vt 0.197594 0.478454
vt 0.314169 0.622063
vt 0.135355 0.654906
vt 0.314188 0.654906
vt 0.135355 0.511099
vt 0.134021 0.241010
vt 0.316542 0.274672
vt 0.316523 0.241010
vt 0.134021 0.387937
vt 0.988584 0.056383
vt 0.731615 0.072216
vt 0.988584 0.072217
vt 0.731615 0.056382
vt 0.584085 0.072217
vt 0.584085 0.056382
vt 0.532789 0.072217
vt 0.532778 0.056382
vt 0.382372 0.072217
vt 0.382372 0.056382
vt 0.686074 0.109072
vt 0.842189 0.124362
vt 0.686074 0.124362
vt 0.842189 0.109072
vt 0.988373 0.124362
vt 0.988373 0.109072
vt 0.537597 0.109072
vt 0.657403 0.124362
vt 0.537597 0.124362
vt 0.657403 0.109072
vt 0.685765 0.083052
vt 0.657044 0.098321
vt 0.685765 0.098321
vt 0.657044 0.083052
vt 0.537464 0.098321
vt 0.537464 0.083052
vt 0.987490 0.083052
vt 0.841482 0.098321
vt 0.987490 0.098320
vt 0.841482 0.083052
vt 0.065718 0.187004
vt 0.082090 0.223148
vt 0.065864 0.709105
vt 0.082090 0.672316
vt 0.030618 0.709184
vt 0.030517 0.187033
vt 0.088765 0.663055
vt 0.124345 0.232757
vt 0.088924 0.232405
vt 0.124186 0.663128
vt 0.439693 0.672482
vt 0.013790 0.187036
vt 0.013891 0.709187
vt 0.400246 0.278769
vt 0.336680 0.232973
vt 0.440690 0.232799
vt 0.336765 0.663212
vt 0.400084 0.617607
vt 0.440462 0.663223
vt 0.336991 0.623643
vt 0.179049 0.481904
vt 0.123895 0.491264
vt 0.336958 0.272797
vt 0.179096 0.414266
vt 0.123937 0.404848
vt 0.336432 0.672485
vt 0.090451 0.709009
vt 0.089809 0.672386
vt 0.387094 0.594671
vt 0.197607 0.420470
vt 0.387094 0.304261
vt 0.197594 0.478454
vt 0.135355 0.654906
vt 0.314169 0.622063
vt 0.314188 0.654906
vt 0.135355 0.511099
vt 0.316542 0.274672
vt 0.134021 0.241010
vt 0.316523 0.241010
vt 0.134021 0.387937
vt 0.731615 0.072216
vt 0.988584 0.056383
vt 0.988584 0.072217
vt 0.731615 0.056382
vt 0.584085 0.072217
vt 0.584085 0.056382
vt 0.532789 0.072217
vt 0.532778 0.056382
vt 0.382372 0.072217
vt 0.382372 0.056382
vt 0.842189 0.124362
vt 0.686074 0.109072
vt 0.686074 0.124362
vt 0.842189 0.109072
vt 0.988373 0.124362
vt 0.988373 0.109072
vt 0.657403 0.124362
vt 0.537597 0.109072
vt 0.537597 0.124362
vt 0.657403 0.109072
vt 0.657044 0.098321
vt 0.685765 0.083052
vt 0.685765 0.098321
vt 0.657044 0.083052
vt 0.537464 0.098321
vt 0.537464 0.083052
vt 0.841482 0.098321
vt 0.987490 0.083052
vt 0.987490 0.098320
vt 0.841482 0.083052
vt 0.082090 0.223148
vt 0.065718 0.187004
vt 0.090316 0.187167
vt 0.065864 0.709105
vt 0.082090 0.672316
vt 0.030618 0.709184
vt 0.030517 0.187033
vt 0.088765 0.663055
vt 0.124186 0.663128
vt 0.088924 0.232405
vt 0.124345 0.232757
vt 0.439693 0.672482
vt 0.089911 0.223198
vt -0.748700 0.996800
vt -0.748700 1.995800
vt -0.249600 1.995800
vt -0.249600 0.996800
vt -0.748700 1.995800
vt -0.748700 0.996800
vt -0.249600 0.996800
vt -0.249600 1.995800
vt 0.249600 0.958400
vt 0.249600 1.009600
vt 0.748700 1.009600
vt 0.748700 0.958400
vt 0.748700 0.958400
vt 0.748700 1.009600
vt 0.249600 1.009600
vt 0.249600 0.958400
vt 0.520800 0.996800
vt 0.520800 1.995800
vt 0.477400 1.995800
vt 0.477400 0.996800
vt 0.748700 1.995800
vt 0.748700 0.996800
vt 0.714000 0.996800
vt 0.714000 1.995800
vn -0.0255 0.8158 0.5778
vn -0.0425 0.0026 0.9991
vn -0.0377 0.4497 0.8924
vn -0.0427 0.0027 0.9991
vn -0.0307 -0.7052 0.7084
vn -0.0358 -0.5524 0.8328
vn -0.0262 -0.7992 0.6005
vn 0.3886 -0.8165 0.4271
vn 0.6784 0.0020 0.7347
vn -0.0320 0.6960 0.7173
vn 0.6772 0.0008 0.7358
vn 0.2888 0.8918 0.3483
vn -0.0427 -0.0001 0.9991
vn 0.9991 -0.0009 0.0427
vn 0.8649 -0.5006 0.0381
vn -0.0277 -0.9996 0.0012
vn -0.7681 -0.6395 -0.0312
vn -0.9469 -0.3192 -0.0396
vn -0.9461 0.3211 -0.0416
vn -0.7668 0.6409 -0.0348
vn -0.5215 0.8529 -0.0247
vn 0.4460 -0.8948 0.0214
vn -0.4477 -0.8940 -0.0167
vn 0.8934 -0.4476 0.0393
vn -0.8940 -0.4464 -0.0370
vn -0.9991 0.0009 -0.0427
vn 0.5276 0.8492 0.0202
vn 0.7704 0.6368 0.0311
vn 0.9472 0.3183 0.0397
vn 0.8938 0.4468 0.0371
vn 0.9468 -0.3191 0.0414
vn 0.4476 0.8941 0.0167
vn 0.7694 -0.6379 0.0346
vn 0.5260 -0.8501 0.0248
vn -0.8932 0.4480 -0.0394
vn -0.4459 0.8948 -0.0216
vn 0.8132 -0.0006 0.5820
vn 0.9993 0.0004 0.0368
vn 0.8794 0.0016 0.4760
vn 0.9995 0.0002 0.0331
vn 0.3435 0.0021 0.9391
vn 0.3423 0.0022 0.9396
vn -0.0404 -0.2395 0.9701
vn -0.0239 0.6975 0.7162
vn -0.0169 0.7109 0.7031
vn -0.0148 -0.9477 0.3188
vn -0.0305 -0.7056 0.7080
vn 0.0425 -0.0026 -0.9991
vn 0.0242 0.8126 -0.5823
vn 0.0351 0.4448 -0.8949
vn 0.0297 -0.7090 -0.7045
vn 0.0427 -0.0027 -0.9991
vn 0.0353 -0.5570 -0.8298
vn 0.0250 -0.8025 -0.5961
vn 0.7387 -0.0019 -0.6741
vn 0.4235 -0.8187 -0.3878
vn 0.8648 -0.5006 0.0384
vn -0.0277 -0.9996 0.0016
vn -0.7681 -0.6395 -0.0311
vn -0.9462 0.3211 -0.0411
vn -0.7668 0.6409 -0.0343
vn -0.5215 0.8529 -0.0246
vn 0.4460 -0.8948 0.0215
vn 0.8934 -0.4476 0.0395
vn 0.7704 0.6368 0.0312
vn 0.9472 0.3183 0.0396
vn 0.8938 0.4468 0.0370
vn 0.7693 -0.6379 0.0347
vn -0.4459 0.8948 -0.0215
vn 0.9988 0.0004 0.0487
vn 0.8599 -0.0023 -0.5104
vn 0.7376 -0.0031 -0.6752
vn 0.9169 -0.0023 -0.3992
vn 0.9986 0.0003 0.0524
vn 0.4227 -0.0030 -0.9063
vn 0.4215 -0.0029 -0.9068
vn 0.0363 -0.4484 -0.8931
vn 0.0115 -0.9494 -0.3137
vn 0.0425 0.3142 -0.9484
vn 0.0288 0.8814 -0.4716
vn 0.0299 -0.7095 -0.7041
vn 0.3177 0.8899 -0.3272
vn -0.0068 -1.0000 0.0058
vn -0.0094 -0.9999 0.0058
vn 0.0067 1.0000 -0.0059
vn 0.0068 1.0000 -0.0059
vn 0.0001 1.0000 -0.0059
vn 0.0069 1.0000 -0.0058
vn 0.0478 -0.0062 -0.9988
vn 0.0478 -0.0061 -0.9988
vn -0.0478 0.0062 0.9988
vn -0.0477 0.0062 0.9988
vn -0.9988 0.0065 -0.0478
vn 0.9988 -0.0065 0.0478
vn 0.9988 -0.0071 0.0478
usemtl contGate.001
s 1
f 1/1/1 2/2/2 3/3/3
f 4/4/4 5/5/5 6/6/6
f 7/7/4 2/2/2 1/1/1
f 7/7/4 8/8/4 2/2/2
f 9/9/4 8/8/4 7/7/4
f 4/4/4 10/10/4 5/5/5
f 11/11/4 10/10/4 4/4/4
f 11/11/4 12/12/4 10/10/4
f 12/12/4 8/8/4 9/9/4
f 11/11/4 8/8/4 12/12/4
f 13/13/7 14/14/8 15/15/9
f 16/16/10 17/17/11 18/18/12
f 16/16/10 19/19/13 17/17/11
f 20/20/4 21/21/4 22/22/4
f 20/20/4 23/23/4 21/21/4
f 24/24/4 25/25/4 26/26/4
f 24/24/4 27/27/4 25/25/4
f 28/28/4 29/29/4 30/30/4
f 28/28/4 31/31/4 29/29/4
f 22/32/14 4/33/15 2/34/14
f 22/32/14 21/35/16 4/33/15
f 21/35/16 11/36/17 4/33/15
f 21/35/16 23/37/18 11/36/17
f 23/37/18 8/38/19 11/36/17
f 23/37/18 20/39/20 8/38/19
f 20/39/20 2/40/21 8/38/19
f 20/39/20 22/41/21 2/40/21
f 26/42/22 32/43/23 5/44/24
f 26/42/22 25/45/25 32/43/23
f 25/45/25 12/46/26 32/43/23
f 25/45/25 27/47/26 12/46/26
f 27/48/27 10/49/28 12/50/27
f 27/48/27 24/51/29 10/49/28
f 24/51/29 5/44/24 10/49/28
f 24/51/29 26/42/22 5/44/24
f 30/52/30 7/53/31 1/54/32
f 30/52/30 29/55/33 7/53/31
f 29/55/33 9/56/34 7/53/31
f 29/55/33 31/57/34 9/56/34
f 31/58/26 33/59/35 9/60/26
f 31/58/26 28/61/36 33/59/35
f 28/61/36 1/54/32 33/59/35
f 28/61/36 30/52/30 1/54/32
f 34/62/37 35/63/38 17/17/11
f 36/64/39 15/15/9 37/65/40
f 34/62/37 37/65/40 35/63/38
f 34/62/37 36/64/39 37/65/40
f 38/66/41 34/62/37 39/67/42
f 38/66/41 36/64/39 34/62/37
f 37/68/43 33/69/44 35/70/45
f 37/68/43 9/9/4 33/69/44
f 37/68/43 12/12/4 9/9/4
f 32/71/46 12/12/4 37/68/43
f 2/2/2 6/6/6 3/3/3
f 2/2/2 4/4/4 6/6/6
f 13/13/7 32/71/46 14/14/8
f 13/13/7 5/5/5 32/71/46
f 13/13/7 6/6/6 5/5/5
f 13/13/7 40/72/47 6/6/6
f 14/14/8 32/71/46 37/68/43
f 14/14/8 37/65/40 15/15/9
f 16/16/10 1/1/1 3/3/3
f 18/18/12 1/1/1 16/16/10
f 18/18/12 33/69/44 1/1/1
f 18/18/12 35/70/45 33/69/44
f 18/18/12 17/17/11 35/63/38
f 38/66/41 41/73/14 42/74/14
f 38/66/41 39/67/42 41/73/14
f 43/75/48 44/76/49 45/77/50
f 46/78/51 47/79/52 48/80/53
f 49/81/52 47/79/52 46/78/51
f 49/81/52 50/82/52 47/79/52
f 51/83/52 50/82/52 49/81/52
f 43/75/48 52/84/52 44/76/49
f 53/85/52 52/84/52 43/75/48
f 53/85/52 54/86/52 52/84/52
f 54/86/52 50/82/52 51/83/52
f 50/82/52 54/86/52 53/85/52
f 55/87/54 56/88/55 57/89/56
f 58/90/52 59/91/52 60/92/52
f 58/90/52 61/93/52 59/91/52
f 62/94/52 63/95/52 64/96/52
f 62/94/52 65/97/52 63/95/52
f 66/98/52 67/99/52 68/100/52
f 66/98/52 69/101/52 67/99/52
f 47/102/57 60/103/14 43/104/14
f 47/102/57 58/105/58 60/103/14
f 50/106/59 58/105/58 47/102/57
f 50/106/59 61/107/18 58/105/58
f 53/108/60 61/107/18 50/106/59
f 53/108/60 59/109/61 61/107/18
f 43/110/62 59/109/61 53/108/60
f 43/110/62 60/111/21 59/109/61
f 70/112/23 64/113/63 46/114/64
f 70/112/23 62/115/25 64/113/63
f 51/116/26 62/115/25 70/112/23
f 51/116/26 65/117/26 62/115/25
f 49/118/65 65/119/27 51/120/27
f 49/118/65 63/121/66 65/119/27
f 46/114/64 63/121/66 49/118/65
f 46/114/64 64/113/63 63/121/66
f 52/122/31 68/123/67 44/124/32
f 52/122/31 66/125/68 68/123/67
f 54/126/34 66/125/68 52/122/31
f 54/126/34 69/127/34 66/125/68
f 71/128/35 69/129/26 54/130/26
f 71/128/35 67/131/69 69/129/26
f 44/124/32 67/131/69 71/128/35
f 44/124/32 68/123/67 67/131/69
f 72/132/70 73/133/71 74/134/72
f 56/88/55 75/135/73 76/136/74
f 76/136/74 73/133/71 72/132/70
f 76/136/74 75/135/73 73/133/71
f 73/133/71 77/137/75 78/138/76
f 73/133/71 75/135/73 77/137/75
f 76/139/77 51/83/52 70/140/78
f 72/141/79 51/83/52 76/139/77
f 72/141/79 54/86/52 51/83/52
f 72/141/79 71/142/80 54/86/52
f 43/75/48 48/80/53 47/79/52
f 43/75/48 45/77/50 48/80/53
f 55/87/54 70/140/78 46/78/51
f 55/87/54 57/89/56 70/140/78
f 48/80/53 55/87/54 46/78/51
f 48/80/53 79/143/81 55/87/54
f 70/140/78 57/89/56 76/139/77
f 76/136/74 57/89/56 56/88/55
f 80/144/82 44/76/49 71/142/80
f 72/141/79 80/144/82 71/142/80
f 74/134/72 80/144/82 72/132/70
f 41/73/14 77/137/75 42/74/14
f 41/73/14 78/138/76 77/137/75
usemtl door
f 81/145/83 82/146/83 83/147/83
f 84/148/83 81/145/83 83/147/84
f 85/149/85 86/150/86 87/151/87
f 88/152/88 85/149/85 87/151/87
f 89/153/89 90/154/89 86/155/89
f 81/156/90 89/153/90 86/155/90
f 91/157/91 85/158/91 88/159/92
f 83/160/91 91/157/91 88/159/92
f 86/161/93 85/162/93 91/163/93
f 81/164/93 86/161/93 91/163/93
f 88/165/94 92/166/94 84/167/94
f 83/168/95 88/165/94 84/167/94
