# Blender v2.90.1 OBJ File: 'ContainmentGateDoorRight.blend'
# www.blender.org
mtllib ContainmentGateDoorRight.mtl
o bykzuieklsxi.001
v -1.589867 0.406284 0.149608
v -1.778332 0.195809 0.149608
v -1.298776 0.198391 0.149608
v -1.299903 2.172038 0.149608
v -1.778012 2.171765 0.149608
v -1.589867 1.964145 0.149608
v -1.299800 1.992034 0.149608
v -0.573325 1.340717 0.149608
v -0.319769 1.383869 0.149608
v -0.573395 1.029737 0.149608
v -0.319769 0.986560 0.149608
v -1.778713 2.332727 0.188486
v -1.778713 2.171765 0.188284
v -1.299903 2.172038 0.188284
v -0.156578 2.332911 0.188486
v -0.156341 2.171765 0.188284
v -1.589867 1.964145 0.053612
v -1.589867 0.406284 0.053611
v -0.573395 1.029670 0.053611
v -0.319769 1.383869 0.053612
v -0.319769 2.172038 0.053612
v -1.299800 1.992034 0.053612
v -1.298880 0.378966 0.053611
v -1.298776 0.198391 0.053611
v -0.319769 0.198391 0.053611
v -0.573325 1.340717 0.053612
v -0.319769 2.172038 0.149608
v -1.299903 2.172038 0.053612
v -1.298880 0.378966 0.149608
v -0.319769 0.986560 0.053611
v -0.319769 0.198391 0.149608
v -0.156456 0.195492 0.149608
v -0.156048 0.037203 0.187861
v -0.157383 0.037173 0.073476
v -0.156456 2.171493 0.149608
v -1.778123 0.195822 0.188283
v -0.156694 0.195714 0.188283
v -0.074542 0.037956 0.000000
v -0.074542 2.332277 0.000001
v -0.002710 2.332277 0.073498
v -0.002710 0.037956 0.073498
v -0.573325 1.340717 -0.149607
v -0.319769 1.383869 -0.149607
v -0.319769 0.986560 -0.149607
v -0.573395 1.029670 -0.053611
v -1.589867 0.406284 -0.053611
v -1.589867 1.964145 -0.053610
v -1.299800 1.992034 -0.053610
v -1.299903 2.172038 -0.053610
v -0.319769 2.172038 -0.053610
v -0.319769 1.383869 -0.053610
v -0.319769 0.986560 -0.053611
v -0.319769 0.198391 -0.053611
v -1.298880 0.378966 -0.053611
v -1.589867 0.406284 -0.149608
v -1.589867 1.964145 -0.149607
v -0.573325 1.340717 -0.053610
v -0.573395 1.029737 -0.149607
v -0.319769 2.172038 -0.149607
v -1.299800 1.992034 -0.149607
v -1.298776 0.198391 -0.053611
v -1.298776 0.198391 -0.149608
v -1.298880 0.378966 -0.149608
v -0.319769 0.198391 -0.149608
v -0.157383 0.037173 -0.073476
v -0.156048 0.037203 -0.187861
v -0.156456 0.195492 -0.149608
v -0.002710 2.332277 -0.073497
v -0.002710 0.037956 -0.073498
v -0.156456 2.171493 -0.149607
v -1.778012 2.171765 -0.149607
v -1.778332 0.195809 -0.149608
v -0.156341 2.171765 -0.188282
v -1.778123 0.195822 -0.188283
v -0.156694 0.195714 -0.188283
v -1.778266 0.037689 0.187861
v -0.157581 2.332647 0.074157
v -1.299903 2.172038 -0.149607
v -0.156578 2.332911 -0.188485
v -1.299903 2.172038 -0.188282
v -1.778713 2.171765 -0.188282
v -1.778713 2.332727 -0.188485
v -1.778266 0.037689 -0.187861
v -0.157581 2.332647 -0.074156
vt 0.400246 0.278769
vt 0.440690 0.232799
vt 0.336680 0.232973
vt 0.336765 0.663212
vt 0.440462 0.663223
vt 0.400084 0.617607
vt 0.336991 0.623643
vt 0.179049 0.481904
vt 0.123895 0.491264
vt 0.179096 0.414266
vt 0.123937 0.404848
vt 0.439290 0.709050
vt 0.439693 0.672482
vt 0.336432 0.672485
vt 0.090451 0.709009
vt 0.089809 0.672386
vt 0.387094 0.594671
vt 0.387094 0.304261
vt 0.197607 0.420470
vt 0.135355 0.511099
vt 0.135355 0.654906
vt 0.314169 0.622063
vt 0.316542 0.274672
vt 0.316523 0.241010
vt 0.134021 0.241010
vt 0.584085 0.072217
vt 0.731615 0.072216
vt 0.731615 0.056382
vt 0.532789 0.072217
vt 0.584085 0.056382
vt 0.532778 0.056382
vt 0.382372 0.072217
vt 0.382372 0.056382
vt 0.988373 0.124362
vt 0.842189 0.124362
vt 0.842189 0.109072
vt 0.657403 0.109072
vt 0.657403 0.124362
vt 0.537597 0.109072
vt 0.686074 0.124362
vt 0.686074 0.109072
vt 0.657044 0.098321
vt 0.685765 0.098321
vt 0.685765 0.083052
vt 0.537464 0.083052
vt 0.537464 0.098321
vt 0.657044 0.083052
vt 0.841482 0.083052
vt 0.841482 0.098321
vt 0.987490 0.083052
vt 0.082090 0.223148
vt 0.090316 0.187167
vt 0.065718 0.187004
vt 0.082090 0.672316
vt 0.124345 0.232757
vt 0.088924 0.232405
vt 0.088765 0.663055
vt 0.124186 0.663128
vt 0.439591 0.223745
vt 0.089911 0.223198
vt 0.013790 0.187036
vt 0.013891 0.709187
vt 0.030618 0.709184
vt 0.030517 0.187033
vt 0.179049 0.481904
vt 0.123895 0.491264
vt 0.123937 0.404848
vt 0.197607 0.420470
vt 0.387094 0.304261
vt 0.387094 0.594671
vt 0.314169 0.622063
vt 0.314188 0.654906
vt 0.135355 0.654906
vt 0.135355 0.511099
vt 0.134021 0.387937
vt 0.134021 0.241010
vt 0.316542 0.274672
vt 0.988584 0.056383
vt 0.988584 0.072217
vt 0.731615 0.072216
vt 0.731615 0.056382
vt 0.584085 0.056382
vt 0.584085 0.072217
vt 0.532789 0.072217
vt 0.532778 0.056382
vt 0.382372 0.072217
vt 0.382372 0.056382
vt 0.842189 0.109072
vt 0.686074 0.109072
vt 0.842189 0.124362
vt 0.988373 0.124362
vt 0.988373 0.109072
vt 0.657403 0.109072
vt 0.537597 0.109072
vt 0.657403 0.124362
vt 0.685765 0.083052
vt 0.685765 0.098321
vt 0.657044 0.098321
vt 0.657044 0.083052
vt 0.537464 0.098321
vt 0.537464 0.083052
vt 0.987490 0.083052
vt 0.987490 0.098320
vt 0.841482 0.098321
vt 0.841482 0.083052
vt 0.065718 0.187004
vt 0.090316 0.187167
vt 0.082090 0.223148
vt 0.030618 0.709184
vt 0.030517 0.187033
vt 0.124186 0.663128
vt 0.088765 0.663055
vt 0.088924 0.232405
vt 0.124345 0.232757
vt 0.440462 0.663223
vt 0.400084 0.617607
vt 0.400246 0.278769
vt 0.440690 0.232799
vt 0.089809 0.672386
vt 0.439591 0.223745
vt 0.336680 0.232973
vt 0.089911 0.223198
vt 0.336958 0.272797
vt 0.439173 0.187799
vt 0.197594 0.478454
vt 0.314188 0.654906
vt 0.134021 0.387937
vt 0.988584 0.072217
vt 0.988584 0.056383
vt 0.988373 0.109072
vt 0.537597 0.124362
vt 0.987490 0.098320
vt 0.065864 0.709105
vt 0.336765 0.663212
vt 0.336991 0.623643
vt 0.336958 0.272797
vt 0.179096 0.414266
vt 0.090451 0.709009
vt 0.336432 0.672485
vt 0.439693 0.672482
vt 0.439290 0.709050
vt 0.439173 0.187799
vt 0.197594 0.478454
vt 0.316523 0.241010
vt 0.686074 0.124362
vt 0.537597 0.124362
vt 0.065864 0.709105
vt 0.082090 0.672316
vn 0.0000 -0.0000 1.0000
vn 0.0000 0.4473 0.8944
vn -0.0014 0.8142 0.5806
vn 0.0002 -0.7071 0.7071
vn 0.0003 -0.5547 0.8321
vn 0.0000 -0.0013 1.0000
vn 0.0004 -0.7075 0.7067
vn 0.0002 -0.8008 0.5989
vn 0.7091 0.0007 0.7051
vn 0.4072 -0.8172 0.4078
vn -0.7682 -0.6402 0.0000
vn 0.8661 -0.4998 -0.0002
vn -0.0267 -0.9996 0.0000
vn -0.9473 0.3203 -0.0003
vn -0.9474 -0.3200 -0.0001
vn -0.7681 0.6403 -0.0003
vn -0.5228 0.8525 -0.0000
vn -1.0000 0.0000 0.0000
vn -0.4472 -0.8944 0.0002
vn -0.8944 -0.4472 -0.0005
vn 0.9477 0.3191 -0.0000
vn 0.7705 0.6375 0.0001
vn 0.5273 0.8497 0.0000
vn 0.8946 -0.4468 -0.0001
vn 0.4473 -0.8944 -0.0008
vn 0.9480 -0.3183 -0.0001
vn 0.4471 0.8945 -0.0001
vn 0.8942 0.4476 -0.0003
vn 0.5273 -0.8497 0.0000
vn 0.7707 -0.6372 -0.0003
vn -0.4472 0.8944 -0.0003
vn -0.8944 0.4472 0.0004
vn 1.0000 0.0013 -0.0060
vn 0.7081 -0.0005 0.7061
vn 0.8373 0.0013 0.5467
vn 1.0000 0.0011 -0.0096
vn 0.0062 0.6955 0.7185
vn 0.0126 0.7090 0.7051
vn 0.0013 -0.2421 0.9702
vn -0.0003 -0.9486 0.3165
vn -0.0019 0.6940 0.7200
vn 0.3027 0.8912 0.3380
vn 0.7152 0.0000 -0.6990
vn 0.9221 -0.0003 0.3870
vn 0.9216 -0.0000 0.3880
vn 0.9221 -0.0002 0.3870
vn -0.0000 0.0000 -1.0000
vn 1.0000 -0.0000 0.0000
vn 0.8661 -0.4998 -0.0000
vn -0.9474 -0.3200 0.0000
vn -0.9473 0.3203 0.0003
vn -0.7681 0.6403 0.0003
vn -0.5228 0.8524 0.0005
vn -0.8944 -0.4472 0.0000
vn 0.4473 -0.8944 -0.0000
vn -0.4472 -0.8944 -0.0000
vn 0.7705 0.6375 0.0000
vn 0.8942 0.4476 0.0000
vn 0.4471 0.8945 0.0000
vn 0.9480 -0.3183 0.0000
vn 0.7707 -0.6372 -0.0000
vn -0.8944 0.4472 0.0000
vn -0.4472 0.8944 0.0000
vn 0.8373 -0.0001 -0.5467
vn 0.7081 -0.0005 -0.7061
vn 1.0000 0.0013 0.0060
vn 0.9221 -0.0002 -0.3869
vn 0.9216 0.0000 -0.3880
vn -0.0011 -0.9486 -0.3165
vn -0.0015 -0.4459 -0.8951
vn 0.0016 0.3168 -0.9485
vn 0.0078 0.8827 -0.4699
vn 0.0003 -0.5547 -0.8321
vn -0.0024 0.4473 -0.8944
vn 0.4072 -0.8172 -0.4078
vn -0.0019 0.6940 -0.7200
vn -0.0015 0.8142 -0.5806
vn 0.3027 0.8912 -0.3380
vn -0.0000 -0.0027 1.0000
vn 0.8990 0.0012 0.4380
vn 0.0002 -0.7071 -0.7071
vn 0.7091 0.0007 -0.7051
vn 0.0002 -0.8008 -0.5989
vn 0.0004 -0.7075 -0.7067
vn 0.0000 -0.0013 -1.0000
vn -0.0000 -0.0027 -1.0000
vn 0.8946 -0.4468 0.0000
vn 0.8990 -0.0003 -0.4380
vn 1.0000 0.0011 0.0096
vn 0.7152 -0.0000 0.6990
usemtl ContDoor.003
s 1
f 1/1/1 2/2/2 3/3/3
f 4/4/4 5/5/5 6/6/1
f 7/7/1 4/4/4 6/6/1
f 7/7/1 6/6/1 8/8/1
f 9/9/1 7/7/1 8/8/1
f 10/10/1 11/11/1 9/9/1
f 12/12/6 13/13/7 14/14/8
f 15/15/9 12/12/6 14/14/8
f 16/16/10 15/15/9 14/14/8
f 17/17/1 18/18/1 19/19/1
f 20/20/1 21/21/1 22/22/1
f 23/23/1 24/24/1 25/25/1
f 8/26/11 6/27/12 17/28/13
f 10/29/14 8/26/11 26/30/15
f 19/31/16 10/29/14 26/30/15
f 1/32/17 10/29/14 19/31/16
f 18/33/17 1/32/17 19/31/16
f 9/34/18 27/35/19 21/36/20
f 22/37/21 7/38/22 20/39/23
f 4/40/24 7/38/22 22/37/21
f 28/41/25 4/40/24 22/37/21
f 29/42/26 3/43/27 24/44/28
f 30/45/29 11/46/29 23/47/30
f 25/48/31 31/49/32 30/50/18
f 32/51/33 33/52/34 34/53/35
f 35/54/36 32/51/33 34/53/35
f 31/55/37 32/56/38 35/57/39
f 9/9/1 11/11/1 35/57/39
f 9/9/1 35/57/39 27/58/40
f 5/5/5 2/2/2 1/1/1
f 4/4/4 27/58/40 14/14/8
f 5/5/5 4/4/4 14/14/8
f 27/58/40 35/57/39 16/16/10
f 3/3/3 2/2/2 36/59/41
f 32/56/38 31/55/37 37/60/42
f 33/52/34 32/51/33 37/60/42
f 38/61/43 39/62/43 40/63/44
f 41/64/45 38/61/43 40/63/46
f 42/65/47 43/66/47 44/67/47
f 45/68/47 46/69/47 47/70/47
f 48/71/47 49/72/47 50/73/47
f 51/74/47 48/71/47 50/73/47
f 52/75/47 53/76/47 54/77/47
f 46/78/48 55/79/48 56/80/49
f 47/81/13 46/78/48 56/80/49
f 57/82/50 42/83/11 58/84/51
f 45/85/52 57/82/50 58/84/51
f 45/85/52 58/84/51 55/86/53
f 46/87/17 45/85/52 55/86/53
f 50/88/54 49/89/55 59/90/56
f 50/88/54 59/90/56 43/91/18
f 51/92/18 50/88/54 43/91/18
f 48/93/21 51/94/23 60/95/57
f 61/96/58 62/97/59 63/98/60
f 54/99/61 63/98/60 44/100/29
f 52/101/29 54/99/61 44/100/29
f 52/102/18 44/103/18 64/104/62
f 53/105/63 52/102/18 64/104/62
f 65/106/64 66/107/65 67/108/66
f 68/109/67 69/110/68 65/106/64
f 43/66/47 59/111/69 70/112/70
f 43/66/47 70/112/70 67/113/71
f 64/114/72 44/67/47 67/113/71
f 71/115/73 56/116/47 55/117/47
f 72/118/74 71/115/73 55/117/47
f 73/119/75 70/112/70 59/111/69
f 74/120/76 72/118/74 62/121/77
f 62/121/77 64/114/72 75/122/78
f 75/122/78 64/114/72 67/113/71
f 1/1/1 3/3/3 29/123/1
f 10/10/1 1/1/1 29/123/1
f 10/10/1 29/123/1 11/11/1
f 10/10/1 9/9/1 8/8/1
f 33/52/34 37/60/42 36/59/41
f 76/124/79 33/52/34 36/59/41
f 26/125/1 17/17/1 19/19/1
f 21/21/1 28/126/1 22/22/1
f 30/127/1 23/23/1 25/25/1
f 6/27/12 1/128/48 18/129/48
f 17/28/13 6/27/12 18/129/48
f 26/30/15 8/26/11 17/28/13
f 27/35/19 4/40/24 28/41/25
f 21/36/20 27/35/19 28/41/25
f 20/130/18 9/34/18 21/36/20
f 7/38/22 9/131/23 20/39/23
f 23/47/30 29/42/26 24/44/28
f 11/46/29 29/42/26 23/47/30
f 31/49/32 11/132/18 30/50/18
f 3/43/27 31/49/32 25/48/31
f 24/44/28 3/43/27 25/48/31
f 15/15/9 35/54/36 77/133/80
f 77/133/80 35/54/36 34/53/35
f 34/53/35 41/64/45 40/63/46
f 77/133/80 34/53/35 40/63/46
f 11/11/1 31/55/37 35/57/39
f 6/6/1 5/5/5 1/1/1
f 27/58/40 16/16/10 14/14/8
f 13/13/7 5/5/5 14/14/8
f 35/54/36 15/15/9 16/16/10
f 3/3/3 36/59/41 37/60/42
f 31/55/37 3/3/3 37/60/42
f 62/121/77 72/118/74 55/117/47
f 56/116/47 71/115/73 78/134/81
f 56/116/47 78/134/81 60/135/47
f 42/65/47 56/116/47 60/135/47
f 42/65/47 60/135/47 43/66/47
f 63/136/47 62/121/77 55/117/47
f 63/136/47 55/117/47 58/137/47
f 44/67/47 63/136/47 58/137/47
f 44/67/47 58/137/47 42/65/47
f 79/138/82 73/119/75 80/139/83
f 80/139/83 81/140/84 82/141/85
f 82/141/85 79/138/82 80/139/83
f 74/120/76 75/122/78 66/107/65
f 83/142/86 74/120/76 66/107/65
f 57/143/47 45/68/47 47/70/47
f 53/76/47 61/144/47 54/77/47
f 47/81/13 56/80/49 42/83/11
f 57/82/50 47/81/13 42/83/11
f 49/89/55 78/145/87 59/90/56
f 51/94/23 43/146/23 60/95/57
f 48/93/21 60/95/57 78/145/87
f 49/89/55 48/93/21 78/145/87
f 54/99/61 61/96/58 63/98/60
f 53/105/63 64/104/62 62/97/59
f 61/96/58 53/105/63 62/97/59
f 84/147/88 70/148/89 79/138/82
f 65/106/64 67/108/66 70/148/89
f 84/147/88 65/106/64 70/148/89
f 84/147/88 68/109/67 65/106/64
f 44/67/47 43/66/47 67/113/71
f 59/111/69 78/134/81 80/139/83
f 73/119/75 59/111/69 80/139/83
f 80/139/83 78/134/81 71/115/73
f 81/140/84 80/139/83 71/115/73
f 73/119/75 79/138/82 70/148/89
f 74/120/76 62/121/77 75/122/78
f 75/122/78 67/108/66 66/107/65
f 68/109/67 39/62/90 38/61/90
f 69/110/68 68/109/67 38/61/90
