# Blender v2.90.1 OBJ File: 'ContainmentGateDoorRight.blend'
# www.blender.org
mtllib ContainmentGateDoorLeft.mtl
o 3hcgcpro2510.001
v 1.774247 0.195804 0.149604
v 1.585786 0.406273 0.149604
v 1.294703 0.198386 0.149604
v 1.773926 2.171708 0.149604
v 1.295830 2.171980 0.149604
v 1.585786 1.964094 0.149604
v 1.294807 0.378956 0.149604
v 0.569340 1.029710 0.149604
v 0.315721 0.986534 0.149604
v 1.295726 1.991982 0.149604
v 0.569271 1.340681 0.149604
v 0.315721 1.383832 0.149604
v 1.774628 2.171708 0.188279
v 1.774628 2.332666 0.188481
v 1.295830 2.171980 0.188279
v 0.152535 2.332850 0.188481
v 0.152297 2.171708 0.188279
v 0.152651 0.195709 0.188278
v 0.152004 0.037202 0.187856
v 1.774037 0.195817 0.188278
v 1.774180 0.037688 0.187856
v 1.585786 0.406273 0.053610
v 1.585786 1.964094 0.053610
v 0.569340 1.029643 0.053610
v 0.569271 1.340681 0.053610
v 1.295830 2.171980 0.053610
v 0.315721 2.171980 0.053610
v 1.295726 1.991982 0.053610
v 0.315721 1.383832 0.053610
v 1.294703 0.198386 0.053610
v 1.294807 0.378956 0.053610
v 0.315721 0.198386 0.053610
v 0.315721 0.986534 0.053610
v 0.315721 2.171980 0.149604
v 0.315721 0.198386 0.149604
v 0.152412 0.195487 0.149604
v 0.153339 0.037172 0.073474
v 0.152412 2.171436 0.149604
v 0.153537 2.332585 0.074155
v -0.001330 0.037955 0.073496
v -0.001330 2.332215 0.073496
v -0.074913 2.332215 0.000001
v -0.074913 0.037955 0.000000
v 1.774247 0.195804 -0.149604
v 1.294703 0.198386 -0.149604
v 1.585786 0.406273 -0.149604
v 1.773926 2.171708 -0.149603
v 1.585786 1.964094 -0.149603
v 1.295830 2.171980 -0.149603
v 1.295726 1.991982 -0.149603
v 0.569271 1.340681 -0.149603
v 0.315721 1.383832 -0.149603
v 1.294807 0.378956 -0.149604
v 0.569340 1.029710 -0.149604
v 0.315721 0.986534 -0.149604
v 0.152297 2.171708 -0.188277
v 0.152535 2.332850 -0.188480
v 1.295830 2.171980 -0.188277
v 1.774628 2.171708 -0.188277
v 1.774628 2.332666 -0.188480
v 0.152651 0.195709 -0.188278
v 1.774037 0.195817 -0.188278
v 0.152004 0.037202 -0.187856
v 1.774180 0.037688 -0.187856
v 1.585786 0.406273 -0.053609
v 0.569340 1.029643 -0.053609
v 1.585786 1.964094 -0.053609
v 0.569271 1.340681 -0.053609
v 1.295830 2.171980 -0.053609
v 1.295726 1.991982 -0.053609
v 0.315721 2.171980 -0.053609
v 0.315721 1.383832 -0.053609
v 1.294703 0.198386 -0.053609
v 0.315721 0.198386 -0.053609
v 1.294807 0.378956 -0.053609
v 0.315721 0.986534 -0.053609
v 0.315721 2.171980 -0.149603
v 0.315721 0.198386 -0.149604
v 0.153339 0.037172 -0.073474
v 0.152412 0.195487 -0.149604
v 0.152412 2.171436 -0.149603
v 0.153537 2.332585 -0.074154
v -0.001330 0.037955 -0.073496
v -0.001330 2.332215 -0.073495
vt 0.440690 0.232799
vt 0.400246 0.278769
vt 0.336680 0.232973
vt 0.440462 0.663223
vt 0.336765 0.663212
vt 0.400084 0.617607
vt 0.336958 0.272797
vt 0.179096 0.414266
vt 0.123937 0.404848
vt 0.336991 0.623643
vt 0.179049 0.481904
vt 0.123895 0.491264
vt 0.439693 0.672482
vt 0.439290 0.709050
vt 0.336432 0.672485
vt 0.090451 0.709009
vt 0.089809 0.672386
vt 0.089911 0.223198
vt 0.090316 0.187167
vt 0.439591 0.223745
vt 0.439173 0.187799
vt 0.387094 0.304261
vt 0.387094 0.594671
vt 0.197607 0.420470
vt 0.197594 0.478454
vt 0.314188 0.654906
vt 0.135355 0.654906
vt 0.314169 0.622063
vt 0.135355 0.511099
vt 0.316523 0.241010
vt 0.316542 0.274672
vt 0.134021 0.241010
vt 0.134021 0.387937
vt 0.988584 0.072217
vt 0.731615 0.072216
vt 0.988584 0.056383
vt 0.731615 0.056382
vt 0.584085 0.072217
vt 0.584085 0.056382
vt 0.532789 0.072217
vt 0.532778 0.056382
vt 0.382372 0.072217
vt 0.382372 0.056382
vt 0.686074 0.124362
vt 0.842189 0.124362
vt 0.686074 0.109072
vt 0.842189 0.109072
vt 0.988373 0.124362
vt 0.988373 0.109072
vt 0.537597 0.124362
vt 0.657403 0.124362
vt 0.537597 0.109072
vt 0.657403 0.109072
vt 0.685765 0.098321
vt 0.657044 0.098321
vt 0.685765 0.083052
vt 0.657044 0.083052
vt 0.537464 0.098321
vt 0.537464 0.083052
vt 0.987490 0.098320
vt 0.841482 0.098321
vt 0.987490 0.083052
vt 0.841482 0.083052
vt 0.082090 0.223148
vt 0.065718 0.187004
vt 0.082090 0.672316
vt 0.065864 0.709105
vt 0.030517 0.187033
vt 0.030618 0.709184
vt 0.088924 0.232405
vt 0.124345 0.232757
vt 0.088765 0.663055
vt 0.124186 0.663128
vt 0.013891 0.709187
vt 0.013790 0.187036
vt 0.440690 0.232799
vt 0.336680 0.232973
vt 0.400246 0.278769
vt 0.440462 0.663223
vt 0.400084 0.617607
vt 0.336765 0.663212
vt 0.336991 0.623643
vt 0.179049 0.481904
vt 0.123895 0.491264
vt 0.336958 0.272797
vt 0.179096 0.414266
vt 0.123937 0.404848
vt 0.089809 0.672386
vt 0.090451 0.709009
vt 0.336432 0.672485
vt 0.439693 0.672482
vt 0.439290 0.709050
vt 0.089911 0.223198
vt 0.439591 0.223745
vt 0.090316 0.187167
vt 0.439173 0.187799
vt 0.387094 0.304261
vt 0.197607 0.420470
vt 0.387094 0.594671
vt 0.197594 0.478454
vt 0.314188 0.654906
vt 0.314169 0.622063
vt 0.135355 0.654906
vt 0.135355 0.511099
vt 0.316523 0.241010
vt 0.134021 0.241010
vt 0.316542 0.274672
vt 0.134021 0.387937
vt 0.988584 0.072217
vt 0.988584 0.056383
vt 0.731615 0.072216
vt 0.731615 0.056382
vt 0.584085 0.072217
vt 0.584085 0.056382
vt 0.532789 0.072217
vt 0.532778 0.056382
vt 0.382372 0.072217
vt 0.382372 0.056382
vt 0.686074 0.124362
vt 0.686074 0.109072
vt 0.842189 0.124362
vt 0.842189 0.109072
vt 0.988373 0.124362
vt 0.988373 0.109072
vt 0.537597 0.124362
vt 0.537597 0.109072
vt 0.657403 0.124362
vt 0.657403 0.109072
vt 0.685765 0.098321
vt 0.685765 0.083052
vt 0.657044 0.098321
vt 0.657044 0.083052
vt 0.537464 0.098321
vt 0.537464 0.083052
vt 0.987490 0.098320
vt 0.987490 0.083052
vt 0.841482 0.098321
vt 0.841482 0.083052
vt 0.065718 0.187004
vt 0.082090 0.223148
vt 0.082090 0.672316
vt 0.065864 0.709105
vt 0.030517 0.187033
vt 0.030618 0.709184
vt 0.124186 0.663128
vt 0.088765 0.663055
vt 0.088924 0.232405
vt 0.124345 0.232757
vn 0.0024 0.4473 0.8944
vn -0.0000 -0.0000 1.0000
vn 0.0015 0.8142 0.5806
vn -0.0003 -0.5547 0.8321
vn -0.0001 -0.7071 0.7071
vn -0.0004 -0.7076 0.7067
vn -0.0000 -0.0013 1.0000
vn -0.0002 -0.8008 0.5989
vn -0.7092 0.0006 0.7050
vn -0.4072 -0.8172 0.4078
vn -0.3027 0.8912 0.3380
vn -0.7081 -0.0005 0.7061
vn 0.0019 0.6940 0.7200
vn 0.0000 -0.0027 1.0000
vn -1.0000 0.0000 0.0000
vn -0.8661 -0.4998 -0.0000
vn 0.0267 -0.9996 -0.0000
vn 0.7682 -0.6402 -0.0000
vn 0.9474 -0.3200 0.0000
vn 0.9473 0.3203 -0.0003
vn 0.7681 0.6403 -0.0003
vn 0.5228 0.8525 -0.0000
vn -0.8946 -0.4468 0.0000
vn 0.4472 -0.8944 -0.0000
vn -0.4473 -0.8944 -0.0000
vn 0.8944 -0.4472 0.0000
vn 1.0000 -0.0000 0.0000
vn -0.5273 0.8497 0.0000
vn -0.7705 0.6375 0.0000
vn -0.9477 0.3191 -0.0000
vn -0.4471 0.8945 0.0000
vn -0.9480 -0.3183 0.0000
vn -0.8942 0.4476 0.0000
vn -0.7707 -0.6372 -0.0000
vn -0.5273 -0.8497 0.0000
vn 0.8944 0.4472 0.0000
vn 0.4472 0.8944 0.0000
vn -1.0000 0.0013 -0.0060
vn -0.8373 -0.0002 0.5467
vn -1.0000 0.0011 -0.0096
vn -0.8990 -0.0003 0.4380
vn -0.3817 -0.0000 0.9243
vn -0.3840 -0.0002 0.9233
vn -0.0126 0.7090 0.7051
vn -0.0062 0.6955 0.7185
vn 0.0008 -0.2421 0.9702
vn 0.0011 -0.9486 0.3165
vn -0.0000 0.4473 -0.8944
vn 0.0015 0.8142 -0.5806
vn 0.0000 0.0000 -1.0000
vn -0.0003 -0.5547 -0.8321
vn -0.0002 -0.7071 -0.7071
vn -0.4072 -0.8172 -0.4078
vn -0.7092 0.0006 -0.7050
vn -0.0002 -0.8008 -0.5989
vn -0.0004 -0.7076 -0.7067
vn -0.0000 -0.0013 -1.0000
vn -0.3027 0.8912 -0.3380
vn 0.0019 0.6940 -0.7200
vn -0.7081 -0.0005 -0.7061
vn 0.0000 -0.0027 -1.0000
vn -0.8661 -0.4998 0.0004
vn 0.0267 -0.9996 -0.0002
vn 0.9474 -0.3200 -0.0001
vn 0.9473 0.3203 0.0002
vn 0.7681 0.6403 0.0001
vn -0.8946 -0.4468 -0.0004
vn -0.4473 -0.8944 -0.0001
vn 0.4472 -0.8944 -0.0006
vn 0.8944 -0.4472 -0.0001
vn -0.7705 0.6375 0.0001
vn -0.9477 0.3191 0.0002
vn -0.4471 0.8945 -0.0002
vn -0.8942 0.4476 0.0003
vn -0.9480 -0.3183 -0.0002
vn 0.8944 0.4472 0.0002
vn 0.4472 0.8944 0.0005
vn -0.8373 0.0013 -0.5467
vn -1.0000 0.0013 0.0060
vn -1.0000 0.0011 0.0096
vn -0.8990 0.0012 -0.4380
vn -0.3817 0.0000 -0.9243
vn -0.3840 -0.0002 -0.9233
vn 0.0003 -0.9486 -0.3165
vn 0.0002 -0.4460 -0.8950
vn -0.0056 0.3167 -0.9485
vn -0.0078 0.8827 -0.4699
usemtl ContDoor.004
s 1
f 1/1/1 2/2/2 3/3/3
f 4/4/4 5/5/5 6/6/2
f 3/3/3 2/2/2 7/7/2
f 2/2/2 8/8/2 7/7/2
f 7/7/2 8/8/2 9/9/2
f 5/5/5 10/10/2 6/6/2
f 6/6/2 10/10/2 11/11/2
f 10/10/2 12/12/2 11/11/2
f 9/9/2 8/8/2 12/12/2
f 12/12/2 8/8/2 11/11/2
f 13/13/6 14/14/7 15/15/8
f 14/14/7 16/16/9 15/15/8
f 16/16/9 17/17/10 15/15/8
f 18/18/11 19/19/12 20/20/13
f 19/19/12 21/21/14 20/20/13
f 22/22/2 23/23/2 24/24/2
f 23/23/2 25/25/2 24/24/2
f 26/26/2 27/27/2 28/28/2
f 27/27/2 29/29/2 28/28/2
f 30/30/2 31/31/2 32/32/2
f 31/31/2 33/33/2 32/32/2
f 2/34/15 6/35/16 22/36/15
f 6/35/16 23/37/17 22/36/15
f 6/35/16 11/38/18 23/37/17
f 11/38/18 25/39/19 23/37/17
f 11/38/18 8/40/20 25/39/19
f 8/40/20 24/41/21 25/39/19
f 8/40/20 2/42/22 24/41/21
f 2/42/22 22/43/22 24/41/21
f 5/44/23 34/45/24 26/46/25
f 34/45/24 27/47/26 26/46/25
f 34/45/24 12/48/27 27/47/26
f 12/48/27 29/49/27 27/47/26
f 12/50/28 10/51/29 29/52/28
f 10/51/29 28/53/30 29/52/28
f 10/51/29 5/44/23 28/53/30
f 5/44/23 26/46/25 28/53/30
f 3/54/31 7/55/32 30/56/33
f 7/55/32 31/57/34 30/56/33
f 7/55/32 9/58/35 31/57/34
f 9/58/35 33/59/35 31/57/34
f 9/60/27 35/61/36 33/62/27
f 35/61/36 32/63/37 33/62/27
f 35/61/36 3/54/31 32/63/37
f 3/54/31 30/56/33 32/63/37
f 19/19/12 36/64/38 37/65/39
f 38/66/40 16/16/9 39/67/41
f 36/64/38 38/66/40 37/65/39
f 38/66/40 39/67/41 37/65/39
f 40/68/42 37/65/39 41/69/43
f 37/65/39 39/67/41 41/69/43
f 36/70/44 35/71/45 38/72/46
f 35/71/45 9/9/2 38/72/46
f 9/9/2 12/12/2 38/72/46
f 38/72/46 12/12/2 34/73/47
f 1/1/1 4/4/4 2/2/2
f 4/4/4 6/6/2 2/2/2
f 17/17/10 34/73/47 15/15/8
f 34/73/47 5/5/5 15/15/8
f 5/5/5 4/4/4 15/15/8
f 4/4/4 13/13/6 15/15/8
f 38/72/46 34/73/47 17/17/10
f 16/16/9 38/66/40 17/17/10
f 1/1/1 3/3/3 20/20/13
f 20/20/13 3/3/3 18/18/11
f 3/3/3 35/71/45 18/18/11
f 35/71/45 36/70/44 18/18/11
f 36/64/38 19/19/12 18/18/11
f 42/74/15 43/75/15 41/69/43
f 43/75/15 40/68/42 41/69/43
f 44/76/48 45/77/49 46/78/50
f 47/79/51 48/80/50 49/81/52
f 49/81/52 48/80/50 50/82/50
f 48/80/50 51/83/50 50/82/50
f 50/82/50 51/83/50 52/84/50
f 45/77/49 53/85/50 46/78/50
f 46/78/50 53/85/50 54/86/50
f 53/85/50 55/87/50 54/86/50
f 52/84/50 51/83/50 55/87/50
f 54/86/50 55/87/50 51/83/50
f 56/88/53 57/89/54 58/90/55
f 59/91/56 58/90/55 60/92/57
f 57/89/54 60/92/57 58/90/55
f 61/93/58 62/94/59 63/95/60
f 62/94/59 64/96/61 63/95/60
f 65/97/50 66/98/50 67/99/50
f 66/98/50 68/100/50 67/99/50
f 69/101/50 70/102/50 71/103/50
f 70/102/50 72/104/50 71/103/50
f 73/105/50 74/106/50 75/107/50
f 74/106/50 76/108/50 75/107/50
f 46/109/15 65/110/15 48/111/62
f 65/110/15 67/112/63 48/111/62
f 48/111/62 67/112/63 51/113/18
f 67/112/63 68/114/64 51/113/18
f 51/113/18 68/114/64 54/115/65
f 68/114/64 66/116/66 54/115/65
f 54/115/65 66/116/66 46/117/22
f 66/116/66 65/118/22 46/117/22
f 49/119/67 69/120/68 77/121/69
f 69/120/68 71/122/70 77/121/69
f 77/121/69 71/122/70 52/123/27
f 71/122/70 72/124/27 52/123/27
f 52/125/28 72/126/28 50/127/71
f 72/126/28 70/128/72 50/127/71
f 50/127/71 70/128/72 49/119/67
f 70/128/72 69/120/68 49/119/67
f 45/129/73 73/130/74 53/131/75
f 73/130/74 75/132/34 53/131/75
f 53/131/75 75/132/34 55/133/35
f 75/132/34 76/134/35 55/133/35
f 55/135/27 76/136/27 78/137/76
f 76/136/27 74/138/77 78/137/76
f 78/137/76 74/138/77 45/129/73
f 74/138/77 73/130/74 45/129/73
f 63/95/60 79/139/78 80/140/79
f 81/141/80 82/142/81 57/89/54
f 80/140/79 79/139/78 81/141/80
f 79/139/78 82/142/81 81/141/80
f 83/143/82 84/144/83 79/139/78
f 84/144/83 82/142/81 79/139/78
f 77/145/84 52/84/50 81/146/85
f 81/146/85 52/84/50 80/147/86
f 52/84/50 55/87/50 80/147/86
f 55/87/50 78/148/87 80/147/86
f 48/80/50 47/79/51 46/78/50
f 47/79/51 44/76/48 46/78/50
f 49/81/52 77/145/84 58/90/55
f 77/145/84 56/88/53 58/90/55
f 49/81/52 58/90/55 47/79/51
f 58/90/55 59/91/56 47/79/51
f 81/146/85 56/88/53 77/145/84
f 57/89/54 56/88/53 81/141/80
f 44/76/48 62/94/59 45/77/49
f 78/148/87 45/77/49 61/93/58
f 45/77/49 62/94/59 61/93/58
f 78/148/87 61/93/58 80/147/86
f 80/140/79 61/93/58 63/95/60
f 42/74/15 84/144/83 43/75/15
f 84/144/83 83/143/82 43/75/15
