# Blender v2.90.1 OBJ File: 'ElevatorDoor.blend'
# www.blender.org
mtllib ElevatorDoor.mtl
o 8yb2h3vy6jxl
v 0.005350 -0.000000 0.074900
v 0.026750 -0.000000 0.074900
v 0.026750 1.712000 0.074900
v 0.005350 1.712000 0.074900
v 0.005350 1.712000 0.069550
v 0.026750 1.712000 0.069550
v 0.026750 -0.000000 0.069550
v 0.005350 -0.000000 0.069550
v 0.005350 0.000000 -0.069550
v 0.026750 0.000000 -0.069550
v 0.026750 1.712000 -0.069550
v 0.005350 1.712000 -0.069550
v 0.005350 1.712000 -0.074900
v 0.026750 1.712000 -0.074900
v 0.026750 0.000000 -0.074900
v 0.005350 0.000000 -0.074900
v 0.026750 0.502900 0.074900
v 0.026750 0.481500 0.074900
v 0.513600 0.481500 0.074900
v 0.513600 0.502900 0.074900
v 0.513600 0.502900 0.069550
v 0.513600 0.481500 0.069550
v 0.026750 0.481500 0.069550
v 0.026750 0.502900 0.069550
v 0.026750 0.502900 -0.069550
v 0.026750 0.481500 -0.069550
v 0.513600 0.481500 -0.069550
v 0.513600 0.502900 -0.069550
v 0.513600 0.502900 -0.074900
v 0.513600 0.481500 -0.074900
v 0.026750 0.481500 -0.074900
v 0.026750 0.502900 -0.074900
v 0.000000 -0.000000 0.064200
v 0.005350 -0.000000 0.064200
v 0.005350 1.712000 0.064200
v 0.000000 1.712000 0.064200
v 0.000000 1.712000 0.021400
v 0.005350 1.712000 0.021400
v 0.005350 -0.000000 0.021400
v 0.000000 -0.000000 0.021400
v 0.000000 0.000000 -0.021400
v 0.005350 0.000000 -0.021400
v 0.005350 1.712000 -0.021400
v 0.000000 1.712000 -0.021400
v 0.000000 1.712000 -0.064200
v 0.005350 1.712000 -0.064200
v 0.005350 0.000000 -0.064200
v 0.000000 0.000000 -0.064200
v 0.005350 -0.000000 0.069550
v 0.513600 -0.000000 0.069550
v 0.513600 1.712000 0.069550
v 0.005350 1.712000 0.069550
v 0.005350 1.712000 0.016050
v 0.513600 1.712000 0.016050
v 0.513600 -0.000000 0.016050
v 0.005350 -0.000000 0.016050
v 0.005350 0.000000 -0.016050
v 0.513600 0.000000 -0.016050
v 0.513600 1.712000 -0.016050
v 0.005350 1.712000 -0.016050
v 0.005350 1.712000 -0.069550
v 0.513600 1.712000 -0.069550
v 0.513600 0.000000 -0.069550
v 0.005350 0.000000 -0.069550
vt 0.000000 1.046875
vt 0.007812 1.046875
vt 0.007812 1.671875
vt 0.000000 1.671875
vt 0.000000 1.671875
vt 0.007812 1.671875
vt 0.007812 1.046875
vt 0.000000 1.046875
vt 0.000000 0.972656
vt 0.000000 0.974609
vt 0.007812 0.974609
vt 0.007812 0.972656
vt 0.007812 0.972656
vt 0.007812 0.974609
vt 0.000000 0.974609
vt 0.000000 0.972656
vt -0.027344 1.046875
vt -0.027344 1.671875
vt -0.025391 1.671875
vt -0.025391 1.046875
vt -0.025391 1.046875
vt -0.025391 1.671875
vt -0.027344 1.671875
vt -0.027344 1.046875
vt 0.000000 1.046875
vt 0.007812 1.046875
vt 0.007812 1.671875
vt 0.000000 1.671875
vt 0.000000 1.671875
vt 0.007812 1.671875
vt 0.007812 1.046875
vt 0.000000 1.046875
vt 0.000000 0.972656
vt 0.000000 0.974609
vt 0.007812 0.974609
vt 0.007812 0.972656
vt 0.007812 0.972656
vt 0.007812 0.974609
vt 0.000000 0.974609
vt 0.000000 0.972656
vt -0.027344 1.046875
vt -0.027344 1.671875
vt -0.025391 1.671875
vt -0.025391 1.046875
vt -0.025391 1.046875
vt -0.025391 1.671875
vt -0.027344 1.671875
vt -0.027344 1.046875
vt 0.000000 1.042969
vt 0.007812 1.042969
vt 0.007812 1.220703
vt -0.000000 1.220703
vt -0.000000 1.220703
vt 0.007812 1.220703
vt 0.007812 1.042969
vt 0.000000 1.042969
vt 0.000000 0.972656
vt 0.000000 0.974609
vt 0.007812 0.974609
vt 0.007812 0.972656
vt 0.007812 0.972656
vt 0.007812 0.974609
vt -0.000000 0.974609
vt -0.000000 0.972656
vt -0.027344 1.042969
vt -0.027344 1.220703
vt -0.025391 1.220703
vt -0.025391 1.042969
vt -0.025391 1.042969
vt -0.025391 1.220703
vt -0.027344 1.220703
vt -0.027344 1.042969
vt 0.000000 1.042969
vt 0.007812 1.042969
vt 0.007812 1.220703
vt -0.000000 1.220703
vt -0.000000 1.220703
vt 0.007812 1.220703
vt 0.007812 1.042969
vt 0.000000 1.042969
vt 0.000000 0.972656
vt 0.000000 0.974609
vt 0.007812 0.974609
vt 0.007812 0.972656
vt 0.007812 0.972656
vt 0.007812 0.974609
vt -0.000000 0.974609
vt -0.000000 0.972656
vt -0.027344 1.042969
vt -0.027344 1.220703
vt -0.025391 1.220703
vt -0.025391 1.042969
vt -0.025391 1.042969
vt -0.025391 1.220703
vt -0.027344 1.220703
vt -0.027344 1.042969
vt -0.015625 1.000000
vt 0.000000 1.000000
vt 0.000000 6.000000
vt -0.015625 6.000000
vt -0.015625 6.000000
vt 0.000000 6.000000
vt 0.000000 1.000000
vt -0.015625 1.000000
vt -0.015625 0.812500
vt -0.015625 0.937500
vt 0.000000 0.937500
vt 0.000000 0.812500
vt 0.000000 0.812500
vt 0.000000 0.937500
vt -0.015625 0.937500
vt -0.015625 0.812500
vt -0.187500 1.000000
vt -0.187500 6.000000
vt -0.062500 6.000000
vt -0.062500 1.000000
vt -0.062500 1.000000
vt -0.062500 6.000000
vt -0.187500 6.000000
vt -0.187500 1.000000
vt -0.015625 1.000000
vt 0.000000 1.000000
vt 0.000000 6.000000
vt -0.015625 6.000000
vt -0.015625 6.000000
vt 0.000000 6.000000
vt 0.000000 1.000000
vt -0.015625 1.000000
vt -0.015625 0.812500
vt -0.015625 0.937500
vt 0.000000 0.937500
vt 0.000000 0.812500
vt 0.000000 0.812500
vt 0.000000 0.937500
vt -0.015625 0.937500
vt -0.015625 0.812500
vt -0.187500 1.000000
vt -0.187500 6.000000
vt -0.062500 6.000000
vt -0.062500 1.000000
vt -0.062500 1.000000
vt -0.062500 6.000000
vt -0.187500 6.000000
vt -0.187500 1.000000
vt -0.382487 1.132812
vt -0.227865 1.132812
vt -0.227865 1.757812
vt -0.382487 1.757812
vt -0.373932 1.757812
vt -0.215345 1.757812
vt -0.215345 1.132812
vt -0.373932 1.132812
vt -0.385617 1.134766
vt -0.385617 1.154297
vt -0.227030 1.154297
vt -0.227030 1.134766
vt -0.280449 1.136719
vt -0.280449 1.156250
vt -0.439036 1.156250
vt -0.439036 1.136719
vt -0.372262 1.132812
vt -0.372262 1.757812
vt -0.355569 1.757812
vt -0.355569 1.132812
vt -0.360577 1.132812
vt -0.360577 1.757812
vt -0.377270 1.757812
vt -0.377270 1.132812
vt -0.377270 1.132812
vt -0.218683 1.132812
vt -0.218683 1.757812
vt -0.377270 1.757812
vt -0.382487 1.757812
vt -0.227865 1.757812
vt -0.227865 1.132812
vt -0.382487 1.132812
vt -0.385617 1.138672
vt -0.385617 1.158203
vt -0.227030 1.158203
vt -0.227030 1.138672
vt -0.227030 1.138672
vt -0.227030 1.158203
vt -0.385617 1.158203
vt -0.385617 1.138672
vt -0.375601 1.132812
vt -0.375601 1.757812
vt -0.358908 1.757812
vt -0.358908 1.132812
vt -0.333868 1.132812
vt -0.333868 1.757812
vt -0.350561 1.757812
vt -0.350561 1.132812
vn 0.0000 -0.0000 1.0000
vn 0.0000 0.0000 -1.0000
vn 0.0000 -1.0000 -0.0000
vn 0.0000 1.0000 0.0000
vn -1.0000 -0.0000 0.0000
vn 1.0000 -0.0000 0.0000
usemtl metal
s 1
f 1/1/1 2/2/1 3/3/1
f 1/1/1 3/3/1 4/4/1
f 5/5/2 6/6/2 7/7/2
f 5/5/2 7/7/2 8/8/2
f 1/9/3 8/10/3 7/11/3
f 1/9/3 7/11/3 2/12/3
f 3/13/4 6/14/4 5/15/4
f 3/13/4 5/15/4 4/16/4
f 1/17/5 4/18/5 5/19/5
f 1/17/5 5/19/5 8/20/5
f 7/21/6 6/22/6 3/23/6
f 7/21/6 3/23/6 2/24/6
f 9/25/1 10/26/1 11/27/1
f 9/25/1 11/27/1 12/28/1
f 13/29/2 14/30/2 15/31/2
f 13/29/2 15/31/2 16/32/2
f 9/33/3 16/34/3 15/35/3
f 9/33/3 15/35/3 10/36/3
f 11/37/4 14/38/4 13/39/4
f 11/37/4 13/39/4 12/40/4
f 9/41/5 12/42/5 13/43/5
f 9/41/5 13/43/5 16/44/5
f 15/45/6 14/46/6 11/47/6
f 15/45/6 11/47/6 10/48/6
f 17/49/1 18/50/1 19/51/1
f 17/49/1 19/51/1 20/52/1
f 21/53/2 22/54/2 23/55/2
f 21/53/2 23/55/2 24/56/2
f 17/57/5 24/58/5 23/59/5
f 17/57/5 23/59/5 18/60/5
f 19/61/6 22/62/6 21/63/6
f 19/61/6 21/63/6 20/64/6
f 17/65/4 20/66/4 21/67/4
f 17/65/4 21/67/4 24/68/4
f 23/69/3 22/70/3 19/71/3
f 23/69/3 19/71/3 18/72/3
f 25/73/1 26/74/1 27/75/1
f 25/73/1 27/75/1 28/76/1
f 29/77/2 30/78/2 31/79/2
f 29/77/2 31/79/2 32/80/2
f 25/81/5 32/82/5 31/83/5
f 25/81/5 31/83/5 26/84/5
f 27/85/6 30/86/6 29/87/6
f 27/85/6 29/87/6 28/88/6
f 25/89/4 28/90/4 29/91/4
f 25/89/4 29/91/4 32/92/4
f 31/93/3 30/94/3 27/95/3
f 31/93/3 27/95/3 26/96/3
usemtl cableBlack
f 33/97/1 34/98/1 35/99/1
f 33/97/1 35/99/1 36/100/1
f 37/101/2 38/102/2 39/103/2
f 37/101/2 39/103/2 40/104/2
f 33/105/3 40/106/3 39/107/3
f 33/105/3 39/107/3 34/108/3
f 35/109/4 38/110/4 37/111/4
f 35/109/4 37/111/4 36/112/4
f 33/113/5 36/114/5 37/115/5
f 33/113/5 37/115/5 40/116/5
f 39/117/6 38/118/6 35/119/6
f 39/117/6 35/119/6 34/120/6
f 41/121/1 42/122/1 43/123/1
f 41/121/1 43/123/1 44/124/1
f 45/125/2 46/126/2 47/127/2
f 45/125/2 47/127/2 48/128/2
f 41/129/3 48/130/3 47/131/3
f 41/129/3 47/131/3 42/132/3
f 43/133/4 46/134/4 45/135/4
f 43/133/4 45/135/4 44/136/4
f 41/137/5 44/138/5 45/139/5
f 41/137/5 45/139/5 48/140/5
f 47/141/6 46/142/6 43/143/6
f 47/141/6 43/143/6 42/144/6
usemtl door1
f 49/145/1 50/146/1 51/147/1
f 49/145/1 51/147/1 52/148/1
f 53/149/2 54/150/2 55/151/2
f 53/149/2 55/151/2 56/152/2
f 49/153/3 56/154/3 55/155/3
f 49/153/3 55/155/3 50/156/3
f 51/157/4 54/158/4 53/159/4
f 51/157/4 53/159/4 52/160/4
f 49/161/5 52/162/5 53/163/5
f 49/161/5 53/163/5 56/164/5
f 55/165/6 54/166/6 51/167/6
f 55/165/6 51/167/6 50/168/6
f 57/169/1 58/170/1 59/171/1
f 57/169/1 59/171/1 60/172/1
f 61/173/2 62/174/2 63/175/2
f 61/173/2 63/175/2 64/176/2
f 57/177/3 64/178/3 63/179/3
f 57/177/3 63/179/3 58/180/3
f 59/181/4 62/182/4 61/183/4
f 59/181/4 61/183/4 60/184/4
f 57/185/5 60/186/5 61/187/5
f 57/185/5 61/187/5 64/188/5
f 63/189/6 62/190/6 59/191/6
f 63/189/6 59/191/6 58/192/6
