# Blender v2.90.1 OBJ File: 'LeverBase.blend'
# www.blender.org
mtllib LeverBase.mtl
o intmhhaibzui.001
v 0.083657 -0.136573 -0.054430
v 0.083657 -0.136574 -0.032925
v -0.083657 -0.136573 -0.054430
v -0.083657 -0.136574 -0.032925
v 0.064678 -0.105589 -0.011419
v -0.064678 -0.105589 -0.011419
v 0.064678 0.105589 -0.011419
v -0.064678 0.105589 -0.011419
v 0.083657 0.136574 -0.032925
v -0.083657 0.136574 -0.032925
v 0.083657 0.136574 -0.054430
v -0.083657 0.136574 -0.054430
v -0.041144 -0.018641 0.000493
v -0.050754 -0.018641 0.000459
v -0.041132 -0.018641 -0.008145
v -0.028426 0.018641 0.000459
v -0.038134 0.018641 0.000493
v -0.028426 -0.000000 0.010055
v -0.038085 -0.000000 0.010225
v -0.038174 0.018641 -0.008145
v -0.041226 -0.000000 0.010225
v -0.050754 -0.000000 0.010055
v -0.028426 -0.018641 0.000459
v -0.038089 -0.018641 0.000493
v -0.038083 -0.018641 -0.008145
v -0.041087 0.018641 0.000493
v -0.050754 0.018641 0.000459
v -0.041090 0.018641 -0.008145
v -0.028426 0.018641 -0.016783
v -0.028426 0.000000 -0.016783
v -0.028426 -0.018641 -0.016783
v -0.038078 -0.018641 -0.016783
v -0.041121 -0.018641 -0.016783
v -0.050754 -0.018641 -0.016783
v -0.050754 0.000000 -0.016783
v -0.050754 0.018641 -0.016783
v -0.041092 0.018641 -0.016783
v -0.038215 0.018641 -0.016783
v 0.050754 -0.018641 0.000459
v 0.041144 -0.018641 0.000493
v 0.041132 -0.018641 -0.008145
v 0.038085 -0.000000 0.010225
v 0.038134 0.018641 0.000493
v 0.028426 -0.000000 0.010280
v 0.028426 0.018641 0.000459
v 0.038174 0.018641 -0.008145
v 0.050754 -0.000000 0.010280
v 0.041226 -0.000000 0.010225
v 0.038089 -0.018641 0.000493
v 0.028426 -0.018641 0.000459
v 0.038083 -0.018641 -0.008145
v 0.050754 0.018641 0.000459
v 0.041087 0.018641 0.000493
v 0.041090 0.018641 -0.008145
v 0.028426 0.000000 -0.016783
v 0.028426 0.018641 -0.016783
v 0.028426 -0.018641 -0.016783
v 0.038078 -0.018641 -0.016783
v 0.050754 -0.018641 -0.016783
v 0.041121 -0.018641 -0.016783
v 0.050754 0.000000 -0.016783
v 0.050754 0.018641 -0.016783
v 0.041092 0.018641 -0.016783
v 0.038215 0.018641 -0.016783
v -0.036322 0.069624 -0.012008
v -0.036322 0.069624 0.001086
v -0.038465 0.069624 -0.012008
v -0.038465 0.069624 0.001086
v -0.033140 0.072578 0.013964
v -0.035188 0.072578 0.014396
v -0.033140 0.084210 0.013964
v -0.035188 0.084210 0.014396
v -0.036322 0.087164 0.001086
v -0.038465 0.087164 0.001086
v -0.036322 0.087164 -0.012008
v -0.038465 0.087164 -0.012008
v -0.040901 0.069624 0.001086
v -0.043044 0.069624 0.001086
v -0.040901 0.069624 -0.012008
v -0.043044 0.069624 -0.012008
v -0.044178 0.072578 0.014396
v -0.046226 0.072578 0.013964
v -0.044178 0.084210 0.014396
v -0.046226 0.084210 0.013964
v -0.040901 0.087164 0.001086
v -0.043044 0.087164 0.001086
v -0.040901 0.087164 -0.012008
v -0.043044 0.087164 -0.012008
v 0.038465 0.069624 0.001086
v 0.036322 0.069624 0.001086
v 0.038465 0.069624 -0.012008
v 0.036322 0.069624 -0.012008
v 0.035188 0.072578 0.014396
v 0.033140 0.072578 0.013964
v 0.035188 0.084210 0.014396
v 0.033140 0.084210 0.013964
v 0.038465 0.087164 0.001086
v 0.036322 0.087164 0.001086
v 0.038465 0.087164 -0.012008
v 0.036322 0.087164 -0.012008
v 0.043044 0.069624 -0.012008
v 0.043044 0.069624 0.001086
v 0.040901 0.069624 -0.012008
v 0.040901 0.069624 0.001086
v 0.046226 0.072578 0.013964
v 0.044178 0.072578 0.014396
v 0.046226 0.084210 0.013964
v 0.044178 0.084210 0.014396
v 0.043044 0.087164 0.001086
v 0.040901 0.087164 0.001086
v 0.043044 0.087164 -0.012008
v 0.040901 0.087164 -0.012008
v -0.038465 -0.069624 0.001086
v -0.036322 -0.069624 0.001086
v -0.038465 -0.069624 -0.012008
v -0.036322 -0.069624 -0.012008
v -0.035188 -0.072578 0.014396
v -0.033140 -0.072578 0.013964
v -0.035188 -0.084210 0.014396
v -0.033140 -0.084210 0.013964
v -0.038465 -0.087164 0.001086
v -0.036322 -0.087164 0.001086
v -0.038465 -0.087164 -0.012008
v -0.036322 -0.087164 -0.012008
v -0.043044 -0.069624 -0.012008
v -0.043044 -0.069624 0.001086
v -0.040901 -0.069624 -0.012008
v -0.040901 -0.069624 0.001086
v -0.046226 -0.072578 0.013964
v -0.044178 -0.072578 0.014396
v -0.046226 -0.084210 0.013964
v -0.044178 -0.084210 0.014396
v -0.043044 -0.087164 0.001086
v -0.040901 -0.087164 0.001086
v -0.043044 -0.087164 -0.012008
v -0.040901 -0.087164 -0.012008
v 0.036322 -0.069624 -0.012008
v 0.036322 -0.069624 0.001086
v 0.038465 -0.069624 -0.012008
v 0.038465 -0.069624 0.001086
v 0.033140 -0.072578 0.013964
v 0.035188 -0.072578 0.014396
v 0.033140 -0.084210 0.013964
v 0.035188 -0.084210 0.014396
v 0.036322 -0.087164 0.001086
v 0.038465 -0.087164 0.001086
v 0.036322 -0.087164 -0.012008
v 0.038465 -0.087164 -0.012008
v 0.040901 -0.069624 0.001086
v 0.043044 -0.069624 0.001086
v 0.040901 -0.069624 -0.012008
v 0.043044 -0.069624 -0.012008
v 0.044178 -0.072578 0.014396
v 0.046226 -0.072578 0.013964
v 0.044178 -0.084210 0.014396
v 0.046226 -0.084210 0.013964
v 0.040901 -0.087164 0.001086
v 0.043044 -0.087164 0.001086
v 0.040901 -0.087164 -0.012008
v 0.043044 -0.087164 -0.012008
vt 0.698768 0.321251
vt 0.698768 0.358091
vt 0.347681 0.321251
vt 0.347681 0.358091
vt 0.668351 0.414821
vt 0.387507 0.414821
vt 0.668351 0.861264
vt 0.387507 0.861264
vt 0.698768 0.927939
vt 0.347681 0.927939
vt 0.698768 0.973066
vt 0.347681 0.973066
vt 0.743895 0.929596
vt 0.743895 0.356434
vt 0.302554 0.356434
vt 0.302554 0.929596
vt 0.430396 0.147291
vt 0.507869 0.149237
vt 0.430305 0.078723
vt 0.033243 0.149235
vt 0.006187 0.219707
vt 0.181812 0.215000
vt 0.179239 0.303882
vt 0.901882 0.080683
vt 0.901618 0.149251
vt 0.982881 0.151892
vt 0.654655 0.303876
vt 0.654654 0.215843
vt 0.479728 0.219023
vt 0.329033 0.149445
vt 0.353675 0.220610
vt 0.406146 0.147291
vt 0.406104 0.078722
vt 0.829787 0.219418
vt 0.801444 0.148682
vt 0.878174 0.149050
vt 0.878742 0.080485
vt 0.033499 0.010152
vt 0.181473 0.010153
vt 0.329447 0.010154
vt 0.406063 0.010154
vt 0.430215 0.010154
vt 0.506680 0.010154
vt 0.654654 0.010154
vt 0.802623 0.010709
vt 0.879311 0.011919
vt 0.979846 0.012778
vt 0.902146 0.012114
vt 0.870643 0.327260
vt 0.871193 0.173859
vt 0.830873 0.250416
vt 0.906185 0.327387
vt 0.906734 0.173986
vt 0.954271 0.174016
vt 0.954271 0.327418
vt 0.994317 0.250717
vt 0.918729 0.174016
vt 0.918729 0.327418
vt 0.507869 0.149237
vt 0.430396 0.147291
vt 0.430305 0.078723
vt 0.179239 0.303882
vt 0.006187 0.219707
vt 0.181812 0.215000
vt 0.033243 0.149235
vt 0.901618 0.149251
vt 0.901882 0.080683
vt 0.982881 0.151892
vt 0.654654 0.215843
vt 0.479728 0.219023
vt 0.654655 0.303876
vt 0.353675 0.220610
vt 0.329033 0.149445
vt 0.406104 0.078722
vt 0.406146 0.147291
vt 0.801444 0.148682
vt 0.829787 0.219418
vt 0.878174 0.149050
vt 0.878742 0.080485
vt 0.181473 0.010153
vt 0.033499 0.010152
vt 0.329447 0.010154
vt 0.406063 0.010154
vt 0.506680 0.010154
vt 0.430215 0.010154
vt 0.654654 0.010154
vt 0.802623 0.010709
vt 0.879311 0.011919
vt 0.902146 0.012114
vt 0.979846 0.012778
vt 0.871193 0.173859
vt 0.870643 0.327260
vt 0.830873 0.250416
vt 0.906734 0.173986
vt 0.906185 0.327387
vt 0.954271 0.327418
vt 0.954271 0.174016
vt 0.994317 0.250717
vt 0.918729 0.327418
vt 0.918729 0.174016
vt 0.043253 0.319110
vt 0.043069 0.401183
vt 0.029913 0.319087
vt 0.029545 0.401159
vt 0.042889 0.481759
vt 0.029880 0.481595
vt 0.153415 0.482448
vt 0.042796 0.494593
vt 0.153349 0.495283
vt 0.153158 0.400954
vt 0.166464 0.483184
vt 0.166636 0.400531
vt 0.153048 0.318880
vt 0.166432 0.318458
vt 0.276381 0.318010
vt 0.276571 0.400083
vt 0.277116 0.483508
vt 0.029545 0.401159
vt 0.043069 0.401183
vt 0.029913 0.319087
vt 0.043253 0.319110
vt 0.029880 0.481595
vt 0.042889 0.481759
vt 0.153349 0.495283
vt 0.153415 0.482448
vt 0.042796 0.494593
vt 0.166636 0.400531
vt 0.153158 0.400954
vt 0.166464 0.483184
vt 0.166432 0.318458
vt 0.153048 0.318880
vt 0.276571 0.400083
vt 0.276381 0.318010
vt 0.277116 0.483508
vt 0.029545 0.401159
vt 0.043069 0.401183
vt 0.029913 0.319087
vt 0.043253 0.319110
vt 0.029880 0.481595
vt 0.042889 0.481759
vt 0.153349 0.495283
vt 0.153415 0.482448
vt 0.042796 0.494593
vt 0.166636 0.400531
vt 0.153158 0.400954
vt 0.166464 0.483184
vt 0.166432 0.318458
vt 0.153048 0.318880
vt 0.276571 0.400083
vt 0.276381 0.318010
vt 0.277116 0.483508
vt 0.043253 0.319110
vt 0.043069 0.401183
vt 0.029913 0.319087
vt 0.029545 0.401159
vt 0.042889 0.481759
vt 0.029880 0.481595
vt 0.153415 0.482448
vt 0.042796 0.494593
vt 0.153349 0.495283
vt 0.153158 0.400954
vt 0.166464 0.483184
vt 0.166636 0.400531
vt 0.153048 0.318880
vt 0.166432 0.318458
vt 0.276381 0.318010
vt 0.276571 0.400083
vt 0.277116 0.483508
vt 0.029545 0.401159
vt 0.043069 0.401183
vt 0.029913 0.319087
vt 0.043253 0.319110
vt 0.029880 0.481595
vt 0.042889 0.481759
vt 0.153349 0.495283
vt 0.153415 0.482448
vt 0.042796 0.494593
vt 0.166636 0.400531
vt 0.153158 0.400954
vt 0.166464 0.483184
vt 0.166432 0.318458
vt 0.153048 0.318880
vt 0.276571 0.400083
vt 0.276381 0.318010
vt 0.277116 0.483508
vt 0.043253 0.319110
vt 0.043069 0.401183
vt 0.029913 0.319087
vt 0.029545 0.401159
vt 0.042889 0.481759
vt 0.029880 0.481595
vt 0.153415 0.482448
vt 0.042796 0.494593
vt 0.153349 0.495283
vt 0.153158 0.400954
vt 0.166464 0.483184
vt 0.166636 0.400531
vt 0.153048 0.318880
vt 0.166432 0.318458
vt 0.276381 0.318010
vt 0.276571 0.400083
vt 0.277116 0.483508
vt 0.043253 0.319110
vt 0.043069 0.401183
vt 0.029913 0.319087
vt 0.029545 0.401159
vt 0.042889 0.481759
vt 0.029880 0.481595
vt 0.153415 0.482448
vt 0.042796 0.494593
vt 0.153349 0.495283
vt 0.153158 0.400954
vt 0.166464 0.483184
vt 0.166636 0.400531
vt 0.153048 0.318880
vt 0.166432 0.318458
vt 0.276381 0.318010
vt 0.276571 0.400083
vt 0.277116 0.483508
vt 0.029545 0.401159
vt 0.043069 0.401183
vt 0.029913 0.319087
vt 0.043253 0.319110
vt 0.029880 0.481595
vt 0.042889 0.481759
vt 0.153349 0.495283
vt 0.153415 0.482448
vt 0.042796 0.494593
vt 0.166636 0.400531
vt 0.153158 0.400954
vt 0.166464 0.483184
vt 0.166432 0.318458
vt 0.153048 0.318880
vt 0.276571 0.400083
vt 0.276381 0.318010
vt 0.277116 0.483508
vn 0.0000 -1.0000 0.0000
vn 0.5983 -0.6152 0.5134
vn -0.6582 -0.5123 0.5517
vn 0.2097 -0.3189 0.9243
vn -0.3374 -0.1283 0.9326
vn 0.3374 0.1283 0.9326
vn -0.2097 0.3189 0.9243
vn 0.6582 0.5123 0.5517
vn -0.5983 0.6152 0.5134
vn 0.0000 1.0000 0.0000
vn 1.0000 0.0000 0.0000
vn -1.0000 0.0000 0.0000
vn -0.2705 -0.9324 0.2398
vn 0.7082 0.3228 0.6279
vn 0.0093 0.4603 0.8877
vn 0.7465 0.1139 0.6555
vn 0.0127 -0.1695 0.9855
vn -0.0129 0.1694 0.9855
vn -0.7466 -0.1139 0.6555
vn -0.0094 -0.4603 0.8877
vn 0.5086 -0.7362 0.4465
vn 0.0031 -0.4628 0.8864
vn -0.0031 0.4628 0.8864
vn -0.4247 0.8247 0.3735
vn 0.4472 -0.8944 0.0002
vn -0.8944 -0.4472 -0.0002
vn -0.7071 0.7071 0.0000
vn 1.0000 -0.0015 0.0064
vn 1.0000 -0.0014 0.0040
vn 0.9999 -0.0015 0.0114
vn 0.8942 -0.0007 0.4476
vn 0.4473 -0.0005 0.8944
vn -1.0000 -0.0012 0.0038
vn -1.0000 -0.0016 0.0022
vn -1.0000 -0.0012 0.0027
vn -0.8937 -0.0006 0.4487
vn -0.4473 -0.0011 0.8944
vn 0.2700 -0.9329 0.2382
vn 0.0026 -0.1728 0.9850
vn 0.0010 0.4645 0.8856
vn -0.7430 0.1149 0.6593
vn -0.7082 0.3291 0.6247
vn 0.7430 -0.1149 0.6593
vn -0.0010 -0.4645 0.8856
vn -0.0026 0.1728 0.9850
vn -0.0031 -0.4628 0.8864
vn -0.5042 -0.7390 0.4469
vn 0.4206 0.8271 0.3729
vn 0.0031 0.4628 0.8864
vn -0.4472 -0.8944 -0.0000
vn 0.8944 -0.4472 -0.0000
vn 0.7071 0.7071 0.0000
vn -1.0000 -0.0014 0.0040
vn -1.0000 -0.0015 0.0064
vn -0.9999 -0.0015 0.0114
vn -0.4473 -0.0005 0.8944
vn -0.8942 -0.0013 0.4476
vn 1.0000 -0.0016 0.0022
vn 1.0000 -0.0012 0.0038
vn 1.0000 -0.0012 0.0027
vn 0.4473 -0.0011 0.8944
vn 0.8937 -0.0016 0.4487
vn 0.7018 -0.7097 -0.0611
vn 0.0146 -0.9895 0.1441
vn 0.4727 -0.7561 0.4526
vn 0.0434 -0.9775 0.2062
vn 0.7757 0.3156 0.5465
vn 0.2061 -0.0000 0.9785
vn 0.7139 0.6988 0.0449
vn -0.4094 0.8631 0.2956
vn -0.6935 0.7016 0.1638
vn 0.4472 0.8944 0.0000
vn -0.8944 0.4472 -0.0000
vn -0.9968 0.0000 0.0802
vn -0.9710 -0.0000 0.2391
vn -0.0146 -0.9895 0.1441
vn -0.7018 -0.7097 -0.0611
vn -0.8944 -0.4472 0.0001
vn -0.0434 -0.9775 0.2062
vn -0.4727 -0.7561 0.4526
vn -0.2061 -0.0000 0.9785
vn -0.7757 0.3156 0.5465
vn 0.6935 0.7016 0.1638
vn -0.7139 0.6988 0.0449
vn 0.4094 0.8631 0.2956
vn 0.8944 0.4472 -0.0001
vn -0.4472 0.8944 -0.0002
vn 0.9968 0.0000 0.0802
vn 0.9710 0.0000 0.2391
vn -0.7138 0.6989 0.0449
vn -0.4472 0.8944 -0.0001
vn 0.7138 0.6989 0.0449
vn 0.0146 0.9895 0.1441
vn 0.7018 0.7097 -0.0611
vn 0.8944 0.4472 -0.0002
vn 0.0434 0.9775 0.2062
vn 0.4727 0.7561 0.4526
vn 0.7757 -0.3157 0.5465
vn -0.6935 -0.7016 0.1638
vn 0.7138 -0.6989 0.0449
vn -0.4094 -0.8631 0.2956
vn 0.4472 -0.8944 0.0000
vn -0.7018 0.7097 -0.0611
vn -0.0146 0.9895 0.1441
vn -0.4727 0.7561 0.4526
vn -0.0434 0.9775 0.2062
vn -0.7757 -0.3157 0.5465
vn -0.7138 -0.6989 0.0449
vn 0.4094 -0.8631 0.2956
vn 0.6935 -0.7016 0.1638
usemtl mechLever
s 1
f 1/1/1 2/2/2 3/3/1
f 2/2/2 4/4/3 3/3/1
f 2/2/2 5/5/4 4/4/3
f 5/5/4 6/6/5 4/4/3
f 5/5/4 7/7/6 6/6/5
f 7/7/6 8/8/7 6/6/5
f 7/7/6 9/9/8 8/8/7
f 9/9/8 10/10/9 8/8/7
f 9/9/8 11/11/10 10/10/9
f 11/11/10 12/12/10 10/10/9
f 11/13/11 9/9/8 1/14/11
f 9/9/8 2/2/2 1/14/11
f 9/9/8 7/7/6 2/2/2
f 7/7/6 5/5/4 2/2/2
f 3/15/12 4/4/3 12/16/12
f 4/4/3 10/10/9 12/16/12
f 4/4/3 6/6/5 10/10/9
f 6/6/5 8/8/7 10/10/9
f 13/17/1 14/18/13 15/19/1
f 16/20/14 17/21/15 18/22/16
f 17/21/15 19/23/17 18/22/16
f 20/24/10 17/25/10 16/26/10
f 21/27/18 22/28/19 13/29/20
f 22/28/19 14/18/13 13/29/20
f 18/22/16 19/23/17 23/30/21
f 19/23/17 24/31/22 23/30/21
f 24/32/1 25/33/1 23/30/21
f 26/34/23 27/35/24 21/27/18
f 27/35/24 22/28/19 21/27/18
f 27/35/24 26/36/10 28/37/10
f 16/20/14 18/22/16 29/38/11
f 18/22/16 30/39/11 29/38/11
f 18/22/16 23/30/21 30/39/11
f 23/30/21 31/40/25 30/39/11
f 23/30/21 25/33/1 31/40/25
f 25/33/1 32/41/1 31/40/25
f 15/19/1 14/18/13 33/42/1
f 14/18/13 34/43/26 33/42/1
f 14/18/13 22/28/19 34/43/26
f 22/28/19 35/44/12 34/43/26
f 22/28/19 27/35/24 35/44/12
f 27/35/24 36/45/27 35/44/12
f 36/45/27 27/35/24 37/46/10
f 27/35/24 28/37/10 37/46/10
f 29/47/10 38/48/10 16/26/10
f 38/48/10 20/24/10 16/26/10
f 13/49/28 26/50/29 21/51/30
f 13/49/28 15/52/31 26/50/29
f 15/52/31 28/53/32 26/50/29
f 15/19/1 33/42/1 25/33/1
f 33/42/1 32/41/1 25/33/1
f 20/24/10 38/48/10 28/37/10
f 38/48/10 37/46/10 28/37/10
f 17/54/33 24/55/34 19/56/35
f 17/54/33 20/57/36 24/55/34
f 20/57/36 25/58/37 24/55/34
f 15/52/31 25/58/37 28/53/32
f 25/58/37 20/57/36 28/53/32
f 39/59/38 40/60/1 41/61/1
f 42/62/39 43/63/40 44/64/41
f 43/63/40 45/65/42 44/64/41
f 43/66/10 46/67/10 45/68/10
f 39/59/38 47/69/43 40/70/44
f 47/69/43 48/71/45 40/70/44
f 49/72/46 42/62/39 50/73/47
f 42/62/39 44/64/41 50/73/47
f 51/74/1 49/75/1 50/73/47
f 47/69/43 52/76/48 48/71/45
f 52/76/48 53/77/49 48/71/45
f 53/78/10 52/76/48 54/79/10
f 55/80/12 44/64/41 56/81/12
f 44/64/41 45/65/42 56/81/12
f 57/82/50 50/73/47 55/80/12
f 50/73/47 44/64/41 55/80/12
f 58/83/1 51/74/1 57/82/50
f 51/74/1 50/73/47 57/82/50
f 59/84/51 39/59/38 60/85/1
f 39/59/38 41/61/1 60/85/1
f 61/86/11 47/69/43 59/84/51
f 47/69/43 39/59/38 59/84/51
f 62/87/52 52/76/48 61/86/11
f 52/76/48 47/69/43 61/86/11
f 54/79/10 52/76/48 63/88/10
f 52/76/48 62/87/52 63/88/10
f 46/67/10 64/89/10 45/68/10
f 64/89/10 56/90/10 45/68/10
f 53/91/53 40/92/54 48/93/55
f 54/94/56 41/95/57 53/91/53
f 41/95/57 40/92/54 53/91/53
f 58/83/1 60/85/1 51/74/1
f 60/85/1 41/61/1 51/74/1
f 63/88/10 64/89/10 54/79/10
f 64/89/10 46/67/10 54/79/10
f 49/96/58 43/97/59 42/98/60
f 51/99/61 46/100/62 49/96/58
f 46/100/62 43/97/59 49/96/58
f 46/100/62 51/99/61 54/94/56
f 51/99/61 41/95/57 54/94/56
f 65/101/51 66/102/63 67/103/1
f 66/102/63 68/104/64 67/103/1
f 66/102/63 69/105/65 68/104/64
f 69/105/65 70/106/66 68/104/64
f 69/105/65 71/107/67 70/108/68
f 71/107/67 72/109/68 70/108/68
f 71/107/67 73/110/69 72/111/70
f 73/110/69 74/112/71 72/111/70
f 73/110/69 75/113/72 74/112/71
f 75/113/72 76/114/73 74/112/71
f 75/113/72 73/110/69 65/101/51
f 73/110/69 66/102/63 65/101/51
f 73/110/69 71/107/67 66/102/63
f 71/107/67 69/105/65 66/102/63
f 67/115/12 68/116/74 76/114/73
f 68/116/74 74/112/71 76/114/73
f 68/116/74 70/117/75 74/112/71
f 70/117/75 72/111/70 74/112/71
f 77/118/76 78/119/77 79/120/1
f 78/119/77 80/121/78 79/120/1
f 81/122/79 82/123/80 77/118/76
f 82/123/80 78/119/77 77/118/76
f 83/124/81 84/125/82 81/126/81
f 84/125/82 82/123/80 81/126/81
f 85/127/83 86/128/84 83/129/85
f 86/128/84 84/125/82 83/129/85
f 87/130/86 88/131/87 85/127/83
f 88/131/87 86/128/84 85/127/83
f 78/119/77 86/128/84 80/121/78
f 86/128/84 88/131/87 80/121/78
f 82/123/80 84/125/82 78/119/77
f 84/125/82 86/128/84 78/119/77
f 85/127/83 77/132/88 87/130/86
f 77/132/88 79/133/11 87/130/86
f 83/129/85 81/134/89 85/127/83
f 81/134/89 77/132/88 85/127/83
f 89/135/76 90/136/77 91/137/1
f 90/136/77 92/138/78 91/137/1
f 93/139/79 94/140/80 89/135/76
f 94/140/80 90/136/77 89/135/76
f 95/141/81 96/142/82 93/143/81
f 96/142/82 94/140/80 93/143/81
f 97/144/83 98/145/90 95/146/85
f 98/145/90 96/142/82 95/146/85
f 99/147/86 100/148/91 97/144/83
f 100/148/91 98/145/90 97/144/83
f 90/136/77 98/145/90 92/138/78
f 98/145/90 100/148/91 92/138/78
f 94/140/80 96/142/82 90/136/77
f 96/142/82 98/145/90 90/136/77
f 97/144/83 89/149/88 99/147/86
f 89/149/88 91/150/11 99/147/86
f 95/146/85 93/151/89 97/144/83
f 93/151/89 89/149/88 97/144/83
f 101/152/51 102/153/63 103/154/1
f 102/153/63 104/155/64 103/154/1
f 102/153/63 105/156/65 104/155/64
f 105/156/65 106/157/66 104/155/64
f 105/156/65 107/158/67 106/159/68
f 107/158/67 108/160/68 106/159/68
f 107/158/67 109/161/92 108/162/70
f 109/161/92 110/163/71 108/162/70
f 109/161/92 111/164/72 110/163/71
f 111/164/72 112/165/73 110/163/71
f 111/164/72 109/161/92 101/152/51
f 109/161/92 102/153/63 101/152/51
f 109/161/92 107/158/67 102/153/63
f 107/158/67 105/156/65 102/153/63
f 103/166/12 104/167/74 112/165/73
f 104/167/74 110/163/71 112/165/73
f 104/167/74 106/168/75 110/163/71
f 106/168/75 108/162/70 110/163/71
f 113/169/93 114/170/94 115/171/10
f 114/170/94 116/172/95 115/171/10
f 117/173/96 118/174/97 113/169/93
f 118/174/97 114/170/94 113/169/93
f 119/175/68 120/176/98 117/177/68
f 120/176/98 118/174/97 117/177/68
f 121/178/99 122/179/100 119/180/101
f 122/179/100 120/176/98 119/180/101
f 123/181/78 124/182/102 121/178/99
f 124/182/102 122/179/100 121/178/99
f 114/170/94 122/179/100 116/172/95
f 122/179/100 124/182/102 116/172/95
f 118/174/97 120/176/98 114/170/94
f 120/176/98 122/179/100 114/170/94
f 121/178/99 113/183/74 123/181/78
f 113/183/74 115/184/12 123/181/78
f 119/180/101 117/185/75 121/178/99
f 117/185/75 113/183/74 121/178/99
f 125/186/73 126/187/103 127/188/10
f 126/187/103 128/189/104 127/188/10
f 126/187/103 129/190/105 128/189/104
f 129/190/105 130/191/106 128/189/104
f 129/190/105 131/192/107 130/193/81
f 131/192/107 132/194/81 130/193/81
f 131/192/107 133/195/108 132/196/109
f 133/195/108 134/197/110 132/196/109
f 133/195/108 135/198/50 134/197/110
f 135/198/50 136/199/51 134/197/110
f 135/198/50 133/195/108 125/186/73
f 133/195/108 126/187/103 125/186/73
f 133/195/108 131/192/107 126/187/103
f 131/192/107 129/190/105 126/187/103
f 127/200/11 128/201/88 136/199/51
f 128/201/88 134/197/110 136/199/51
f 128/201/88 130/202/89 134/197/110
f 130/202/89 132/196/109 134/197/110
f 137/203/73 138/204/103 139/205/10
f 138/204/103 140/206/104 139/205/10
f 138/204/103 141/207/105 140/206/104
f 141/207/105 142/208/106 140/206/104
f 141/207/105 143/209/107 142/210/81
f 143/209/107 144/211/81 142/210/81
f 143/209/107 145/212/108 144/213/109
f 145/212/108 146/214/110 144/213/109
f 145/212/108 147/215/50 146/214/110
f 147/215/50 148/216/51 146/214/110
f 147/215/50 145/212/108 137/203/73
f 145/212/108 138/204/103 137/203/73
f 145/212/108 143/209/107 138/204/103
f 143/209/107 141/207/105 138/204/103
f 139/217/11 140/218/88 148/216/51
f 140/218/88 146/214/110 148/216/51
f 140/218/88 142/219/89 146/214/110
f 142/219/89 144/213/109 146/214/110
f 149/220/93 150/221/94 151/222/10
f 150/221/94 152/223/95 151/222/10
f 153/224/96 154/225/97 149/220/93
f 154/225/97 150/221/94 149/220/93
f 155/226/68 156/227/98 153/228/68
f 156/227/98 154/225/97 153/228/68
f 157/229/99 158/230/100 155/231/101
f 158/230/100 156/227/98 155/231/101
f 159/232/78 160/233/102 157/229/99
f 160/233/102 158/230/100 157/229/99
f 150/221/94 158/230/100 152/223/95
f 158/230/100 160/233/102 152/223/95
f 154/225/97 156/227/98 150/221/94
f 156/227/98 158/230/100 150/221/94
f 157/229/99 149/234/74 159/232/78
f 149/234/74 151/235/12 159/232/78
f 155/231/101 153/236/75 157/229/99
f 153/236/75 149/234/74 157/229/99
