# Blender v2.90.1 OBJ File: 'LeverHandle.blend'
# www.blender.org
mtllib LeverHandle.mtl
o 0kf2fcjze6sp
v -0.040824 -0.009968 -0.098091
v -0.040824 -0.009968 0.000211
v -0.040824 0.009257 0.000211
v 0.040824 -0.009968 0.000211
v 0.040824 -0.009968 -0.098091
v 0.040824 0.009257 0.000211
v 0.047847 -0.014194 -0.094633
v 0.047847 0.013484 -0.094633
v -0.047847 -0.014194 -0.094633
v -0.047847 0.013484 -0.094633
v 0.047847 0.013484 -0.104491
v -0.047847 0.013484 -0.104491
v -0.032906 -0.007560 -0.104491
v -0.047847 -0.014194 -0.104491
v -0.026903 -0.007560 -0.104491
v 0.026912 -0.007560 -0.104491
v 0.032897 -0.007560 -0.104491
v 0.047847 -0.014194 -0.104491
v -0.026903 0.006734 -0.104491
v 0.026912 0.006734 -0.104491
v 0.032897 0.006734 -0.104491
v 0.027171 -0.007560 -0.117021
v 0.027171 0.006734 -0.117021
v -0.027202 0.006734 -0.116931
v -0.032906 0.006734 -0.104491
v -0.032607 0.006734 -0.119544
v -0.027202 -0.007560 -0.116931
v 0.032638 0.006734 -0.119455
v 0.019126 0.006734 -0.128028
v 0.032638 -0.007560 -0.119455
v 0.019126 -0.007560 -0.128028
v -0.032607 -0.007560 -0.119544
v -0.019136 -0.007560 -0.128028
v -0.019136 0.006734 -0.128028
v 0.016793 0.006734 -0.123253
v -0.016783 0.006734 -0.123253
v 0.016793 -0.007560 -0.123253
v -0.016783 -0.007560 -0.123253
v -0.040824 -0.007126 0.005712
v -0.038442 -0.009968 0.000211
v -0.040824 0.006300 0.005712
v -0.038442 -0.007126 0.005712
v -0.038442 0.009257 0.000211
v -0.038442 -0.010083 -0.098091
v -0.038442 0.009257 -0.098091
v -0.040824 -0.002543 0.008605
v -0.038442 -0.002543 0.008605
v -0.038442 0.006300 0.005712
v 0.038442 0.009257 0.000211
v 0.040824 0.009257 -0.098091
v 0.038442 0.009257 -0.098091
v 0.038442 -0.009968 0.000211
v 0.038442 -0.010083 -0.098091
v 0.040824 -0.007126 0.005712
v 0.040824 0.006300 0.005712
v 0.038442 -0.007126 0.005712
v -0.040824 0.009257 -0.098091
v 0.040824 -0.002543 0.008605
v 0.038442 -0.002543 0.008605
v 0.038442 0.006300 0.005712
v 0.040824 0.001717 0.008605
v 0.038442 0.001717 0.008605
v -0.038442 0.001717 0.008605
v -0.040824 0.001717 0.008605
v 0.032897 -0.007328 -0.104491
v 0.026912 -0.007328 -0.104491
v -0.026903 -0.007328 -0.104491
v 0.038442 -0.009852 -0.098091
v -0.032906 -0.007328 -0.104491
v 0.040824 -0.006894 0.005712
v 0.038442 -0.006894 0.005712
v -0.038442 -0.006894 0.005712
v -0.040824 -0.006894 0.005712
v -0.038442 -0.009852 -0.098091
vt 0.877310 0.991644
vt 0.877310 0.481026
vt 0.776846 0.481026
vt 0.877310 0.481026
vt 0.877310 0.991644
vt 0.776846 0.481026
vt 0.040205 0.849316
vt 0.040205 0.784927
vt 0.261893 0.849316
vt 0.261893 0.784927
vt 0.040205 0.959380
vt 0.040205 0.936543
vt 0.261893 0.959380
vt 0.261893 0.936543
vt 0.227281 0.887792
vt 0.261893 0.872154
vt 0.213372 0.887792
vt 0.088704 0.887792
vt 0.074838 0.887792
vt 0.040205 0.872154
vt 0.017367 0.936543
vt 0.017367 0.872154
vt 0.284730 0.936543
vt 0.213372 0.920904
vt 0.088704 0.920904
vt 0.074838 0.920904
vt 0.222630 0.775239
vt 0.223350 0.740338
vt 0.239301 0.775239
vt 0.063929 0.532888
vt 0.063929 0.580332
vt 0.022338 0.580332
vt 0.072732 0.604300
vt 0.071898 0.638952
vt 0.056008 0.604300
vt 0.056841 0.646231
vt 0.231773 0.580331
vt 0.231772 0.532887
vt 0.273066 0.532887
vt 0.020800 0.670141
vt 0.058120 0.670028
vt 0.020538 0.709953
vt 0.238581 0.645982
vt 0.200943 0.669863
vt 0.223350 0.639201
vt 0.239394 0.709676
vt 0.200943 0.709676
vt 0.239394 0.669863
vt 0.056841 0.733308
vt 0.094366 0.709676
vt 0.071898 0.740587
vt 0.094366 0.669863
vt 0.058217 0.709841
vt 0.093029 0.532888
vt 0.204478 0.532887
vt 0.093029 0.580332
vt 0.204479 0.580331
vt 0.194443 0.656563
vt 0.100918 0.722976
vt 0.284730 0.872154
vt 0.877310 0.452453
vt 0.889679 0.481026
vt 0.861946 0.452453
vt 0.792209 0.452453
vt 0.889679 0.452453
vt 0.990142 0.481026
vt 0.889679 0.991644
vt 0.990142 0.991644
vt 0.877309 0.428648
vt 0.889678 0.428647
vt 0.905042 0.452453
vt 0.974779 0.452453
vt 0.764477 0.481026
vt 0.776846 0.991644
vt 0.764477 0.991644
vt 0.889679 0.481026
vt 0.990142 0.481026
vt 0.889679 0.991644
vt 0.227281 0.920904
vt 0.072731 0.775239
vt 0.056008 0.775240
vt 0.222630 0.604300
vt 0.239301 0.604300
vt 0.281076 0.669863
vt 0.022338 0.532888
vt 0.273067 0.580331
vt 0.281076 0.709677
vt 0.238581 0.733557
vt 0.877310 0.452453
vt 0.861946 0.452453
vt 0.792209 0.452453
vt 0.889679 0.452453
vt 0.776846 0.991644
vt 0.990142 0.991644
vt 0.877309 0.428648
vt 0.889678 0.428647
vt 0.905042 0.452453
vt 0.974779 0.452453
vt 0.100918 0.656563
vt 0.194443 0.722976
vt 0.877308 0.406521
vt 0.877308 0.382716
vt 0.889678 0.406521
vt 0.776846 0.452453
vt 0.764477 0.452453
vt 0.950974 0.437425
vt 0.877308 0.406521
vt 0.889678 0.406521
vt 0.877308 0.382716
vt 0.889677 0.382716
vt 0.776846 0.452453
vt 0.764477 0.452453
vt 0.889677 0.382716
vt 0.950974 0.437425
vt 0.838141 0.437425
vt 0.764477 0.481026
vt 0.838141 0.437425
vt 0.928847 0.437425
vt 0.816014 0.437425
vt 0.764477 0.991644
vt 0.816014 0.437425
vt 0.928847 0.437425
vt 0.040205 0.959380
vt 0.261893 0.959380
vt 0.040205 0.936543
vt 0.261893 0.936543
vt 0.074838 0.920904
vt 0.088704 0.920904
vt 0.213372 0.920904
vt 0.764477 0.481026
vt 0.764477 0.991644
vt 0.776846 0.991644
vt 0.227281 0.920904
vt 0.776846 0.452453
vt 0.764477 0.452453
vt 0.776846 0.481026
vt 0.776846 0.481026
vt 0.764477 0.452453
vt 0.776846 0.452453
vt 0.764477 0.481026
vt 0.776846 0.991644
vt 0.764477 0.991644
vn -1.0000 -0.0000 0.0000
vn -0.9487 -0.2809 0.1451
vn -0.7167 0.6597 0.2263
vn 0.9487 -0.2809 0.1451
vn 1.0000 -0.0000 0.0000
vn 0.7167 0.6597 0.2263
vn 0.8944 0.0000 0.4472
vn 0.4083 0.4082 0.8165
vn -0.4472 0.0000 0.8944
vn -0.6667 0.6666 0.3334
vn 0.5774 0.5774 -0.5774
vn -0.1623 0.1622 -0.9733
vn -0.5299 -0.2650 -0.8056
vn -0.3714 -0.0002 -0.9285
vn 0.2171 -0.4345 -0.8741
vn -0.5297 -0.2649 -0.8057
vn 0.2662 -0.5325 -0.8034
vn 0.3163 0.0000 -0.9487
vn 0.5289 0.2628 -0.8070
vn -0.2173 0.4347 -0.8740
vn 0.4335 0.2168 -0.8747
vn -0.5076 -0.7503 0.4236
vn -0.6288 0.7503 0.2041
vn 0.5095 0.7502 0.4216
vn -0.3318 0.6637 -0.6703
vn -0.6292 0.7454 -0.2201
vn 0.6297 -0.7502 0.2018
vn 0.5146 0.7453 -0.4238
vn 0.1285 0.7197 -0.6823
vn 0.6299 -0.7453 -0.2184
vn 0.2570 -0.7197 -0.6450
vn -0.5132 -0.7454 -0.4254
vn -0.1278 -0.7195 -0.6826
vn -0.2556 0.7195 -0.6457
vn -0.2466 0.7186 0.6502
vn 0.1243 0.7188 0.6840
vn -0.1233 -0.7186 0.6844
vn 0.2486 -0.7188 0.6493
vn -0.5668 -0.6549 0.4998
vn 0.8321 -0.4928 0.2546
vn -0.8084 0.3938 0.4375
vn 0.7182 -0.4682 0.5147
vn 0.7167 0.6882 0.1131
vn 0.7071 0.7071 0.0000
vn -0.5683 -0.3034 0.7648
vn 0.3265 -0.1743 0.9290
vn 0.7175 0.5490 0.4288
vn -0.7167 0.6882 0.1131
vn 0.4472 0.8944 0.0000
vn -0.7071 0.7071 0.0000
vn -0.8321 -0.4928 0.2546
vn 0.5668 -0.6549 0.4998
vn 0.8084 0.3938 0.4375
vn -0.7182 -0.4682 0.5147
vn -0.4472 0.8944 -0.0000
vn 0.5684 -0.3034 0.7648
vn -0.3265 -0.1743 0.9290
vn -0.7175 0.5490 0.4288
vn 0.3265 0.1743 0.9290
vn -0.5683 0.3034 0.7648
vn 0.5684 0.3034 0.7648
vn -0.3265 0.1743 0.9290
vn 0.0000 -1.0000 0.0000
vn -0.0000 -0.8944 -0.4472
vn 0.0000 -0.2425 -0.9701
vn -0.0001 -0.8944 -0.4472
vn 0.0000 0.0000 -1.0000
vn -0.0167 -0.9858 0.1670
vn -0.0485 -0.9988 -0.0012
vn -0.0243 -0.9997 -0.0006
vn 0.0000 -0.8730 0.4878
vn -0.0000 -0.9423 0.3348
vn -0.0000 -0.9423 0.3347
vn -0.0242 -0.9997 -0.0006
vn 0.0167 -0.9858 0.1670
vn 0.0243 -0.9997 -0.0006
vn 0.0485 -0.9988 -0.0012
usemtl MatD3D01
s 1
f 1/1/1 2/2/2 3/3/3
f 4/4/4 5/5/5 6/6/6
f 7/7/7 8/8/8 9/9/9
f 8/8/8 10/10/10 9/9/9
f 8/11/8 11/12/11 10/13/10
f 11/12/11 12/14/12 10/13/10
f 13/15/13 14/16/14 12/14/12
f 13/15/13 15/17/15 14/16/14
f 15/17/15 16/18/16 14/16/14
f 16/18/16 17/19/17 14/16/14
f 17/19/17 18/20/18 14/16/14
f 11/12/11 8/21/8 7/22/7
f 10/23/10 12/14/12 14/16/14
f 19/24/19 20/25/20 15/17/15
f 20/25/20 16/18/16 15/17/15
f 11/12/11 18/20/18 21/26/21
f 18/20/18 17/19/17 21/26/21
f 16/27/16 22/28/22 17/29/17
f 23/30/23 22/31/22 16/32/16
f 19/33/19 24/34/24 25/35/25
f 24/34/24 26/36/26 25/35/25
f 27/37/27 24/38/24 19/39/19
f 25/40/25 26/41/26 13/42/13
f 28/43/28 29/44/29 23/45/23
f 30/46/30 31/47/31 28/48/28
f 31/47/31 29/44/29 28/48/28
f 32/49/32 33/50/33 27/51/27
f 26/41/26 34/52/34 32/53/32
f 34/52/34 33/50/33 32/53/32
f 35/54/35 36/55/36 37/56/37
f 36/55/36 38/57/38 37/56/37
f 29/44/29 34/52/34 35/58/35
f 38/59/38 33/50/33 31/47/31
f 11/12/11 21/26/21 12/14/12
f 21/26/21 20/25/20 12/14/12
f 20/25/20 19/24/19 12/14/12
f 10/23/10 14/16/14 9/60/9
f 39/61/39 2/2/2 40/62/40
f 2/2/2 39/63/39 41/64/41
f 39/61/39 40/62/40 42/65/42
f 43/66/43 44/67/5 45/68/44
f 46/69/45 42/65/42 47/70/46
f 42/71/42 40/62/40 48/72/47
f 49/73/48 50/74/49 51/75/50
f 52/76/51 49/77/48 53/78/1
f 44/67/5 43/66/43 40/62/40
f 33/50/33 34/52/34 29/44/29
f 31/47/31 33/50/33 29/44/29
f 50/74/49 6/6/6 5/5/5
f 12/14/12 19/24/19 25/79/25
f 13/15/13 12/14/12 25/79/25
f 32/49/32 15/80/15 13/81/13
f 26/41/26 32/53/32 13/42/13
f 28/43/28 20/82/20 21/83/21
f 30/46/30 28/48/28 21/84/21
f 23/30/23 16/32/16 20/85/20
f 28/43/28 23/45/23 20/82/20
f 27/37/27 19/39/19 15/86/15
f 32/49/32 27/51/27 15/80/15
f 18/20/18 11/12/11 7/22/7
f 30/46/30 21/84/21 17/87/17
f 22/28/22 30/88/30 17/29/17
f 4/4/4 54/89/52 52/76/51
f 54/90/52 4/4/4 55/91/53
f 52/76/51 54/89/52 56/92/54
f 1/1/1 3/3/3 57/93/55
f 53/78/1 49/77/48 51/94/50
f 56/92/54 58/95/56 59/96/57
f 52/76/51 56/97/54 60/98/58
f 36/99/36 26/36/26 24/34/24
f 38/57/38 36/55/36 24/38/24
f 37/100/37 30/88/30 22/28/22
f 35/54/35 37/56/37 22/31/22
f 38/57/38 24/38/24 27/37/27
f 33/50/33 38/59/38 27/51/27
f 35/54/35 22/31/22 23/30/23
f 29/44/29 35/58/35 23/45/23
f 34/52/34 26/36/26 36/99/36
f 35/58/35 34/52/34 36/99/36
f 31/47/31 30/88/30 37/100/37
f 38/59/38 31/47/31 37/100/37
f 55/91/53 4/4/4 6/6/6
f 61/101/59 55/102/53 62/103/60
f 49/77/48 52/76/51 60/98/58
f 55/104/53 6/6/6 60/105/58
f 63/106/61 42/71/42 48/72/47
f 64/107/62 63/108/61 41/109/41
f 41/109/41 63/108/61 48/110/47
f 2/2/2 41/64/41 3/3/3
f 3/3/3 41/111/41 48/112/47
f 40/62/40 43/66/43 48/72/47
f 62/103/60 55/102/53 60/113/58
f 56/97/54 62/114/60 60/98/58
f 39/61/39 42/65/42 46/69/45
f 41/64/41 39/63/39 46/115/45
f 6/6/6 50/74/49 49/73/48
f 60/105/58 6/6/6 49/73/48
f 3/3/3 48/112/47 43/116/43
f 57/93/55 3/3/3 43/116/43
f 58/95/56 56/92/54 54/89/52
f 55/91/53 58/117/56 54/90/52
f 47/118/46 42/71/42 63/106/61
f 64/107/62 47/70/46 63/108/61
f 64/119/62 41/64/41 46/115/45
f 47/70/46 64/107/62 46/69/45
f 57/93/55 43/116/43 45/120/44
f 61/101/59 59/96/57 58/95/56
f 55/91/53 61/121/59 58/117/56
f 59/96/57 61/101/59 62/103/60
f 56/97/54 59/122/57 62/114/60
f 7/123/63 9/124/63 18/125/64
f 18/125/64 9/124/63 14/126/65
f 18/125/66 14/126/65 65/127/67
f 65/127/67 14/126/65 66/128/67
f 66/128/67 14/126/65 67/129/67
f 52/130/68 68/131/69 5/132/70
f 14/126/65 69/133/67 67/129/67
f 70/134/71 71/135/71 4/136/72
f 2/137/72 72/138/71 73/139/71
f 4/136/73 52/130/68 5/132/74
f 71/135/71 52/130/68 4/136/72
f 2/137/72 40/140/75 72/138/71
f 1/141/76 40/140/75 2/137/73
f 1/141/76 74/142/77 40/140/75
